<?xml version="1.0" encoding="UTF-8"?> <!-- Generator: Adobe Illustrator 24.0.3, SVG Export Plug-In . SVG Version: 6.00 Build 0) --> <svg xmlns="http://www.w3.org/2000/svg" xmlns:xlink="http://www.w3.org/1999/xlink" version="1.1" id="Calque_1" x="0px" y="0px" width="841.9px" height="1190.6px" viewBox="0 0 841.9 1190.6" style="enable-background:new 0 0 841.9 1190.6;" xml:space="preserve"> <style type="text/css"> .st0{fill:#9AA06B;} .st1{fill:#454B69;stroke:#454B69;stroke-miterlimit:10;} .st2{fill:#302E41;} .st3{fill:#464353;} .st4{fill:#E8B277;} .st5{fill:#BCBCBC;} .st6{fill:#E3E6EF;} .st7{fill:#474747;} </style> <g> <path class="st0" d="M774.7,1086.6c5-23.9,7.6-48.7,7.6-74.1c0-199.9-161.7-362-361.2-362s-361.2,162.1-361.2,362 c0,25,2.5,49.4,7.3,73L774.7,1086.6z"></path> <g> <g> <path class="st1" d="M456.3,615.3c-13.3-0.4-26.6,1.1-40,1.2c-11.3,0-22.6,0.3-33.8,1.1c-8.8,0.6-17.6,0-26.3,0.8 c-9.2,0.9-18.5,0.8-27.7,0.8c-2,0-3.3,1-4.4,2.3c-4.6,5.3-9.5,10.5-13.8,16c-4.6,5.8-9.7,11-14.2,16.8 c-5.2,6.7-11.1,12.7-16,19.6c-1.7-2-1.8-4.7-2.5-7c-0.9-2.8-1.9-5.7-2.5-8.6c-0.6-3-2-4.3-5.1-4.9c-11.9-2.2-17.9-9.2-18.6-21.4 c-0.4-6.2,0.7-12.2,2.1-18.2c0.2-0.9,0.8-1.7,0.3-2.8c-1.4-0.6-2.7,0.1-4.1,0.3c-16.5,2.4-29.8-2.8-38.8-17.2 c-8.2-12.9-10.6-27.1-8.3-42.1c4.5-29,9.2-58,13.8-87c4.3-26.7,8.6-53.4,12.8-80c0.4-2.8,0.9-5.6,1.3-8.4 c0.4-3.1,2.3-5.1,4.6-7.3c6.9-6.8,16-9.1,24.4-12.7c24.2-10.4,48.5-20.7,72.8-31c3.7,1.7,7.4,3.4,11.1,5 c11,4.7,25.3,6.9,37.1,7.8c-1.1,5.5-6.6,10.9-7.6,16.4c-0.3,0.7-0.6,1.4-0.8,2.1c-8.2,31.9-16.4,63.7-24.6,95.6 c-3.2,12.4-6.8,27.3-9.9,39.7c-1,0.3-2.1,0.7-3.1,1c-12.1,2.9-22.4,5.8-33.6,11.3c-2.2,1.1-4.2,1-4.7,3.4 c-1.7,8.1-2,16.2-1.4,24.3c0.4,4.9,1.5,9.9,4.1,14.3c4.1,7.2,10,9.4,17.7,6.3c1.5-0.6,2.9-1.1,4.6-0.8c0.2,4.2-1.5,8-2.4,12 c-0.4,1.7-0.3,2.7,1.6,3.2c0.9,0.2,1.8,0.6,2.7,0.9c34.1,12,68.2,23.9,102.2,35.9C435.7,607.8,446.2,611.1,456.3,615.3z"></path> <path class="st1" d="M534.9,383.1c-0.8,1.7-2.2,1-3.3,0.8c-22.1-4-44.1-8.1-66.2-12.3c-2.1-0.4-4.2-1.2-6.3-1.8 c-0.7-1-1.9-1.1-2.8-1.5c-12.9-5.2-25.9-10.3-38.8-15.5c-11.5-4.6-26.6-9.8-38.1-14.4c2.1-1.8,8.6-0.7,11-1.3 c17.2-4.3,26.8-15.7,31-32.4c0.2,0,0.5,0,0.7,0.2c0.3,0.5,0.8,0.7,1.3,0.6c13.3,5.2,26.6,10.3,39.9,15.6 c10.8,4.2,21.5,8.7,32.4,12.8c3.7,1.4,6.4,3.7,8.6,6.8c9.1,12.8,18.3,25.5,27.5,38.3C532.8,380.4,533.8,381.8,534.9,383.1z"></path> <path class="st1" d="M663.6,498.8c2.3,0,4.7,0,7,0c1.4,0,2.9,0,4-0.9c2.2-1.8,4.8-1.9,7.5-1.9c0,0.5,0.1,1-0.1,1.4 c-7.3,17.2-16.7,33.1-29.8,46.5c-9.6,9.9-20.8,17.2-34.1,21.1c-1-0.3-1.4-0.6-0.3-1.4c5.4-4.5,10.8-9.1,16.2-13.6 c4.6-3.8,9.1-7.8,13.8-11.4c2.6-2,4.1-4.5,5.1-7.6C656.4,520.2,660,509.5,663.6,498.8z"></path> </g> <path class="st2" d="M566.8,1076.6c-6.5-9.8-11.5-20.2-16-31c-1.4-3.2-2.6-6.4-3.9-9.6c-0.5-1.2-0.6-2.2,1.1-2.3 c1.5-0.1,1.7-1.1,1.6-2.3c-1-11.3-1.9-22.5-2.9-33.8c-0.8-9.2-1.7-18.5-2.5-27.7c-0.6-6.4-1-12.8-1.7-19.2 c-0.2-2.3,0.2-3.8,2.5-4.9c8-4,15.9-8.2,23.9-12.3c2.9-1.5,3.2-1.3,3.5,1.8c0.9,8.8,1.8,17.5,2.8,26.2c0.7,6.5-0.7,12.9-1.2,19.3 c-0.9,11.6-2.2,23.2-3.3,34.7c-0.2,2.2-0.3,4.4-0.7,6.6c-0.4,2.3,0.4,3.4,2.7,3.9c7.5,1.7,14.9,3.7,22.4,5.6 c0.5,0.1,1,0.1,1.4,0.3c5,2.1,9.7,2,13.8-2.1c1.5-1.5,3.2-1.3,5.1-0.5c9.5,4.1,19.2,7.9,28.7,11.9c9,3.8,18.4,4.8,28.2,4 c23.9-1.9,46.1-9.2,67.3-20.1c4.8-2.5,9.3-5.3,13.5-8.7c1-0.8,1.9-1.6,2.8-2.5c4.9-5,4.5-9.3-1.5-13.1c-5.7-3.6-12.1-5.3-18.5-6.7 c-5.8-1.3-11.8-2.1-17.7-3c-1.6-0.2-3-0.7-4.4-1.6c-8.2-5-16.5-9.8-24.7-14.8c-5.5-3.4-9.8-8.4-14.6-12.6 c-8.4-7.3-16.8-14.7-25.7-21.5c-1.5-1.2-2.9-2.5-4.6-3.3c-6.6-3.2-10.6-8.6-14-14.7c-2.6-4.7-5.5-9.2-8.4-13.7 c-1-1.6-0.9-2.6,0.9-3.2c0.4-0.2,0.8-0.4,1.3-0.6c5.8-3.1,5.8-3.1,4.3-9.8C615.6,842,602,789.1,585.6,736.9 c-5.2-16.7-10.8-33.2-17.1-49.5c-0.5-1.3-0.9-2.7-1.3-4c-1.1-2.6-2.3-5.2-3.4-7.7c-3.9-9.1-7.9-18.1-13.1-26.5 c-3.3-5.4-7-10.4-12.4-13.9c-2.6-0.4-4,1.7-5.5,3.1c-2.3,2.2-4.4,2.5-7.5,1.4c-22.4-8-44.9-15.9-67.3-23.7 c-0.9-0.3-1.8-0.5-2.7-0.7c-13.3-0.4-26.6,1.1-40,1.2c-11.3,0-22.6,0.3-33.8,1.1c-8.8,0.6-17.6,0-26.3,0.8 c-9.2,0.9-18.5,0.8-27.7,0.8c-2,0-3.3,1-4.4,2.3c-4.6,5.3-9.5,10.5-13.8,16c-4.6,5.8-9.7,11-14.2,16.8c-5.2,6.7-11.1,12.7-16,19.6 c-0.1,2.2-0.2,4.5-0.4,6.7c0.7,6.3,0.5,12.6,0.9,18.8c0.9,13.3,2.4,26.6,7.5,39.2c1,2.5,2.3,4.8,3.7,7.1 c4.3,7,10.4,10.5,18.8,10.4c11.8-0.1,23.5-1.6,35.1-3.3c21.4-3.1,42.7-7.1,63.9-11.6c1.7-0.4,2.9,0.1,4.3,1.1 c9.2,6.8,18.5,13.6,27.8,20.2c2,1.4,2.9,3,3.1,5.4c1.7,15.4,3.6,30.9,5.4,46.3c2,17.5,4,34.9,6,52.4c1.7,14.8,3.6,29.6,5.3,44.4 c1.7,14.7,3.3,29.3,5,44c1.8,15,3.6,29.9,5.4,44.9c1.1,9.4,2.1,18.7,3.2,28.1c0.1,0.6,0.1,1.3,0.2,1.9c0.6,3.9,0.6,3.9,4.8,4 c0.2,0,0.3,0,0.5,0c5.4,0.1,5.3,0,4.2,5.1c-3,13.8-5.8,27.7-6.9,41.8l-0.3,3c0.1,2.6,0.2,5,0.4,7.5c0.3,4.7,2.1,8.2,6.8,10.3 c5.7,2.6,10.9,6,16.8,9.3c0-3.5,0-6.6,0-9.6c1.8-0.5,2.2,0.8,2.8,1.6c3.5,4.1,6.7,8.3,9,13.2c1.2,2.4,2.3,4.9,2.3,7.6 c0,3.3,1.9,5.2,4.7,6.4c5.1,2.2,10.5,3.2,16,3.9c6,0.1,12,0.9,18,1.8c2.5,0,5,0,7.5,0c5-1.1,10.1-1.6,15.2-1.8 c4.2-0.4,8.3-1.5,12.2-3.3c2.8-1.3,4.2-3.4,4.1-6.7c-0.2-6.6-0.8-13.2-2.9-19.5c-2.5-7.7-6.8-14.1-13.7-18.6L566.8,1076.6z"></path> <path class="st3" d="M397.3,151.7c7.3,0.9,14.6,1.9,21.5,4.8c5.7,2.3,10.4,5.7,14.2,10.6c7,9.1,12.5,18.9,14.6,30.3 c1.3,7.1,0.7,13.8-4.6,19.3c-2.8,0.3-5.6,0.6-8.3-0.7c-8.1-4-17-5.4-25.6-7.6c-2-0.5-3.9-1.1-5.7-2.2c-8.2-5.2-17-8.6-26.8-9.4 c-7.2-0.6-14.1,0.3-20.1,4.5c-8.7,6.2-13.1,15-14,25.5c-0.2,2.2-0.3,4.4-1.2,6.4c-1.1,2.5-2.7,2.8-4.7,0.9 c-1.4-1.3-2.6-2.8-3.9-4.1c-2.4-2.3-3.8-2.1-5.4,0.9c-1.3,2.4-1.1,4.9-0.5,7.3c1.4,5.3,2.6,10.6,4.3,15.9c1.2,4,0.8,7.4-2.1,10.4 c-1.8,1.8-1.7,3.4-0.3,5.4c0.9,1.3,2.5,2.7,0.8,4.6c-3.7-5.6-8.6-9.7-14.2-13.3c-14-8.9-19.4-23.8-14.8-39.9 c0.6-2.1,1.4-4.2,2.2-6.2c2.7-6.9,4.4-14,4-21.5c-0.4-9.3,3.7-17,9.7-23.8c6.7-7.5,15.1-12.1,24.7-14.9 C341,155,361.3,148.2,397.3,151.7z"></path> <path class="st4" d="M391,337.1c17.2-4.3,26.8-15.7,31-32.4c-3-4-6-8-7.8-12.8c-1.5-4-1.5-4,2-6.4c10.3-7.1,18.1-16.4,23.1-27.9 c5.7-13.2,7.2-26.9,3.7-40.9c-2.8,0.3-5.6,0.6-8.3-0.7c-8.1-4-17-5.4-25.6-7.6c-2-0.5-3.9-1.1-5.7-2.2c-8.2-5.2-17-8.6-26.8-9.4 c-7.2-0.6-14.1,0.3-20.1,4.5c-8.7,6.2-13.1,15-14,25.5c-0.2,2.2-0.3,4.4-1.2,6.4c-1.1,2.5-2.7,2.8-4.7,0.9 c-1.4-1.3-2.6-2.8-3.9-4.1c-2.4-2.3-3.8-2.1-5.4,0.9c-1.3,2.4-1.1,4.9-0.5,7.3c1.4,5.3,2.6,10.6,4.3,15.9c1.2,4,0.8,7.4-2.1,10.4 c-1.8,1.8-1.7,3.4-0.3,5.4c0.9,1.3,2.5,2.7,0.8,4.6c1.7,2.4,4,4.3,6.3,6.1c2.1,1.7,2.6,3.6,2.7,6.1c0.2,6.9-0.3,13.8-0.9,20.6 c-0.5,6.2-1.7,12.4-4.7,18c3.7,1.7,7.4,3.4,11.1,5C344,330.5,362.8,340.6,391,337.1z"></path> <g> <path class="st5" d="M664.9,451.2c-1.4,2.2-2.6,4.6-3.9,6.9c-1.3-0.1-2.4,0.1-3.5,1c-3,2.7-6.4,5-9.6,7.5 c-15.7,12.1-31.7,23.9-47.5,35.9c-4,3-7.9,6.2-11.8,9.2c-0.7,0.5-1.3,1-0.7,1.9s1.5,1.1,2.4,0.4c1-0.7,2.1-1.4,3.1-2.1 c10.2-7.8,20.3-15.6,30.4-23.4c8.8-6.7,17.6-13.5,26.5-20.1c2.8-2.1,5.2-5,9-5.6c-2.3,8.7-3.6,17.5-4.3,26.5 c-0.8,0.1-1.5,0.4-2.1,0.9c-8.7,6.5-17.3,12.9-26,19.4c-8,6-15.9,12.2-23.9,18.2c-6.2,4.7-12.5,9.4-18.8,14.1 c-1,0.8-2.3,1.8-1.5,3.1c1.1,1.8,2.1-0.2,3-0.7c0.8-0.4,1.6-1,2.3-1.6c8.4-6.2,16.7-12.7,25-19c10-7.6,20-15.1,29.9-22.7 c3.8-2.9,7.4-6.2,12.1-7.9c1.5,4.1,4.3,6.6,8.5,7.7c0.4,0.1,0.7,0.5,1.1,0.8c-3.6,10.7-7.2,21.4-10.7,32.1 c-1,3.1-2.5,5.6-5.1,7.6c-4.7,3.7-9.2,7.6-13.8,11.4c-5.4,4.5-10.8,9.1-16.2,13.6l-8.2,6.8c-6.9,5.7-13.5,11.6-20.4,17.3 c-6.6,5.5-13.3,10.9-19.9,16.4c-4.7,3.9-9.3,7.9-14,11.9c-5,4.2-10.1,8.4-15.2,12.6l-8.7,7.5c-2.3,2.2-4.4,2.5-7.5,1.4 c-22.4-8-44.9-15.9-67.3-23.7c-0.9-0.3-1.8-0.5-2.7-0.7c-10.1-4.3-20.6-7.5-31-11.2c-34-12-68.1-24-102.2-35.9 c-0.9-0.3-1.8-0.7-2.7-0.9c-1.9-0.5-1.9-1.5-1.6-3.2c0.9-4,2.6-7.8,2.4-12h-0.1c0.5-0.2,0.9-0.4,0.9-1c1.3-1.5,3.2-1.9,4.9-2.7 c12.3-5.2,24.3-11,35.6-18.2c6.1-3.9,12-8.1,16.5-13.8c3.4-4.3,5.2-8.9,3.2-14.4c1.1,0,2.1,0.2,3.2,0.5 c20.4,5.4,40.9,10.7,61.3,16.1c19.2,5.1,38.4,10.4,57.6,15.4c16.7,4.3,33.4,8.5,49.9,13.2c2.4,0.7,4.9,1.2,7.3,1.7 c0.9,0.2,1.5-0.4,1.8-1.2c0.2-0.7-0.3-1.2-0.9-1.4c-0.6-0.2-1.1-0.6-1.7-0.7c-3.5-0.7-7-1.9-10.4-2.8c-20-5.3-40-10.4-59.9-15.6 c-20.3-5.3-40.5-10.8-60.8-16.2c-12.2-3.3-24.5-6.7-36.8-9.6c-4.4-1-8.6-3.1-13.2-3c-8.6-7.4-18.6-8.5-29.7-8.2 c-4,0.1-7.8,2-11.7,2c3.1-12.5,6.2-27.3,9.4-39.7l30.6-116l223.6,58.9c2.3,0.6,4,0.1,5.7-1.1c10.1-7.4,20.1-13.6,30.2-20.9 c11.9-8.6,23.9-17.1,35.9-25.7c12.9-9.4,25.8-18.9,38.7-28.2c5.7-4.1,11.1-8.6,17.4-12.3c1.3,2.1-0.1,3.8-0.6,5.3 c-7.9,24-16,47.9-24,71.9c-5.3,15.9-10.6,31.9-15.9,47.8c-0.2,0.6-1.7,7.4-2,7.9C667.4,449.5,664.9,451.2,664.9,451.2z M710.7,346.4c-1.2-0.5-1.7,0.1-2.3,0.6c-4.4,3.5-8.9,6.9-13.4,10.3c-21.2,16.2-42.5,32.1-63.7,48.2c-2,1.5-3.4,3.2-4.2,5.5 c-7.7,23.2-15.4,46.5-23.2,69.7c-0.3,0.9-0.8,1.8,0.2,2.6c1.6,0.1,2.5-1.1,3.6-1.9c7.2-5.1,14.2-10.2,21.3-15.5 c17.8-13.1,35.5-26.3,53.4-39.2c4.5-3.2,7-7.2,8.5-12.4c4.8-16.9,9.9-33.7,14.8-50.5C707.4,358,709,352.2,710.7,346.4z M562.2,534.6c1.3-0.2,2.8,0.3,2.9-1.3c0-1-1.1-1.4-2.1-1.6c-0.3,0-0.6,0-0.9-0.1c-23.4-6.2-46.9-12.5-70.3-18.7 c-21.2-5.6-42.4-10.8-63.6-16.5c-15.5-4.2-31.1-8.4-46.7-12.4c-6.8-1.8-13.6-3.6-20.4-5.5c-0.8-0.2-1.6-0.6-2,0.4s0.1,1.9,1,2.3 c0.5,0.3,1.2,0.3,1.8,0.5c7.9,2.1,15.7,4.4,23.5,6.5c20.1,5.3,40.3,10.5,60.4,15.8c20,5.2,39.9,10.5,59.9,15.8 c15.7,4.2,31.4,8.4,47.2,12.6C556.1,533.2,559.3,533.9,562.2,534.6z M373.3,421.3c-1.2,0.1-2.7-0.3-2.9,1.2 c-0.2,1.6,1.3,1.4,2.3,1.7c7.7,2.1,15.3,4.4,23.1,6.4c22.8,5.7,45.4,11.9,68,18c24.8,6.6,49.6,13,74.4,19.5 c11.7,3,23.3,6.1,35,9.1c1.2,0.3,2.6,1.2,3.2-0.5c0.5-1.7-1.3-1.7-2.3-2.3c-0.1-0.1-0.3,0-0.5-0.1c-21.5-5.7-42.9-11.4-64.4-17 c-16.4-4.2-32.7-8.6-49-12.9c-24-6.4-48.1-12.5-72.1-19C383.1,423.9,378,422.8,373.3,421.3z M573.7,490.4 c-0.5-1.7-2.2-1.6-3.4-1.9c-8.2-2-16.3-4.4-24.5-6.6c-24.8-6.6-49.6-13-74.4-19.5c-21.5-5.6-42.9-11.4-64.4-17 c-12-3.2-23.9-6.3-35.9-9.4c-1.3-0.4-3.1-1.2-3.5,0.7c-0.5,2,1.8,1.9,3,2.2c14.6,4,29.3,7.9,44,11.7c17.5,4.6,35.1,9,52.7,13.7 c13.3,3.5,26.6,7.2,39.9,10.7c19.8,5.2,39.7,10.3,59.5,15.4c1.7,0.4,3.3,1.2,4.9,1.5C572.5,492.1,573.3,491.5,573.7,490.4z M570.8,504.7c-0.1-1.3-1.2-1.1-2-1.4c-24.6-6.6-49.2-13.2-73.9-19.7c-17.5-4.6-35.2-8.9-52.7-13.7c-15.5-4.3-31.1-8.2-46.7-12.4 c-9.4-2.5-18.7-5-28.1-7.5c-1-0.3-2.3-1-2.7,0.6c-0.4,1.6,1.1,1.6,2.1,1.9c4.9,1.5,9.9,3.1,14.9,4.3 c27.4,6.6,54.4,14.5,81.7,21.4c19,4.8,37.8,10,56.7,15.1c15.4,4.1,30.8,8.2,46.2,12.3c1.1,0.3,2.1,0.7,3.2,0.3 C570.2,505.8,570.6,505.3,570.8,504.7z M579.9,448.6c0.8-0.1,1.8,0.1,2.1-0.8c0.4-1.2-0.6-1.6-1.5-1.9c-0.6-0.2-1.2-0.2-1.9-0.3 c-7.6-2-15.1-4-22.7-6c-11.2-3-22.4-6-33.6-9c-11.5-3-23-6-34.5-9c-11-2.9-22.1-5.9-33.1-8.9c-16-4.3-32-8.6-48.1-12.8 c-9.5-2.5-19.1-4.9-28.6-7.3c-0.8-0.2-1.6-0.6-2,0.4s0.1,2,1,2.3c1.5,0.5,3,0.6,4.5,1c15.9,4.2,31.7,8.5,47.6,12.7 c14.8,3.9,29.7,7.7,44.5,11.7c20.9,5.5,41.7,11.1,62.6,16.6c11.5,3,23,6.1,34.5,9.2C573.9,447.3,576.9,447.9,579.9,448.6z M588,433.2c0-1.1-0.7-1.4-1.5-1.6c-3.2-0.9-6.3-1.9-9.5-2.7c-20-5.2-40-10.3-60-15.5c-20.4-5.4-40.8-10.9-61.2-16.3 c-11.2-3-22.4-5.8-33.6-8.7c-12.6-3.3-25.1-6.6-37.7-10c-1-0.3-2.3-1.1-2.8,0.4c-0.6,1.7,1.1,2,2.2,2.5c0.5,0.2,1.2,0.2,1.8,0.4 c7.6,2,15.1,3.9,22.7,5.9c24.6,6.5,49.3,13.1,73.9,19.6c17.2,4.5,34.5,9,51.8,13.5c15.7,4.1,31.4,8.4,47.2,12.6 c1.7,0.4,3.3,0.8,5,1.1C587.2,434.5,587.9,434,588,433.2z M565.4,520.3c0.3,0,1.4,0.2,1.7-1c0.4-1.2-0.6-1.6-1.5-1.9 c-1-0.3-2.1-0.6-3.2-0.9c-11.5-3-23-5.9-34.5-8.9c-15.4-4-30.9-8.2-46.3-12.3c-20.1-5.3-40.2-10.7-60.3-16 c-14.4-3.8-28.7-7.7-43.1-11.5c-4.7-1.2-9.4-2.3-14.1-3.4c-0.8-0.2-1.9-1-2.3,0.5c-0.3,0.9,0.4,1.4,1.1,1.8 c0.6,0.3,1.1,0.5,1.7,0.7c11.6,3.1,23.2,6.5,34.9,9.4c22.6,5.6,45,12,67.6,17.8c26.4,6.7,52.6,14,79,20.8 C552.4,517,558.6,518.5,565.4,520.3z M579.4,462.3c-0.6-1.7-1.7-1.9-2.8-2.2c-9.1-2.4-18.1-4.8-27.2-7.2 c-20-5.3-39.9-10.6-59.9-15.8c-17.1-4.5-34.2-8.9-51.3-13.4c-20-5.2-39.9-10.5-59.9-15.8c-1.7-0.5-4.2-1.9-4.7,0.5 c-0.5,1.9,2.5,2,4,2.4c23.4,5.6,46.6,12.3,69.9,18.3c17.3,4.5,34.5,8.9,51.8,13.5c15.7,4.1,31.4,8.4,47.2,12.6 c9.1,2.4,18.2,4.7,27.2,7.2C575.5,462.7,577.3,463.1,579.4,462.3z"></path> <g> <path class="st6" d="M710.7,346.4c-1.7,5.8-3.3,11.6-5,17.4c-5,16.8-10,33.6-14.8,50.5c-1.5,5.2-4,9.1-8.5,12.4 c-17.9,12.9-35.6,26.1-53.4,39.2c-7.1,5.2-14.2,10.4-21.3,15.5c-1.1,0.8-2,2-3.6,1.9c-0.9-0.9-0.5-1.7-0.2-2.6 c7.7-23.2,15.5-46.4,23.2-69.7c0.8-2.3,2.3-4,4.2-5.5c21.3-16,42.6-32,63.7-48.2c4.5-3.4,9-6.8,13.4-10.3 C709,346.5,709.5,345.8,710.7,346.4z"></path> <path class="st6" d="M562.2,534.6c-2.9-0.7-6.2-1.4-9.3-2.2c-15.7-4.2-31.4-8.4-47.2-12.6c-20-5.3-39.9-10.6-59.9-15.8 c-20.1-5.3-40.3-10.5-60.4-15.8c-7.9-2.1-15.7-4.3-23.5-6.5c-0.6-0.2-1.3-0.2-1.8-0.5c-0.9-0.5-1.5-1.3-1-2.3 c0.4-1,1.2-0.6,2-0.4c6.8,1.9,13.6,3.7,20.4,5.5c15.6,4,31.2,8.2,46.7,12.4c21.1,5.7,42.4,11,63.6,16.5 c23.5,6.2,46.9,12.4,70.3,18.7c0.3,0.1,0.6,0.1,0.9,0.1c1,0.1,2.1,0.5,2.1,1.6C565,535,563.5,534.4,562.2,534.6z"></path> <path class="st6" d="M373.3,421.3c4.7,1.6,9.8,2.6,14.8,4c24,6.5,48.1,12.7,72.1,19c16.3,4.3,32.6,8.7,49,12.9 c21.5,5.6,42.9,11.3,64.4,17c0.2,0,0.3,0,0.5,0.1c1,0.6,2.8,0.6,2.3,2.3c-0.5,1.7-2,0.9-3.2,0.5c-11.7-3.1-23.3-6.1-35-9.1 c-24.8-6.5-49.6-12.9-74.4-19.5c-22.7-6.1-45.3-12.2-68-18c-7.7-1.9-15.4-4.2-23.1-6.4c-1-0.3-2.5-0.1-2.3-1.7 C370.6,421,372,421.4,373.3,421.3z"></path> <path class="st6" d="M573.7,490.4c-0.4,1.1-1.2,1.7-2.2,1.5c-1.7-0.4-3.3-1.1-4.9-1.5c-19.8-5.1-39.7-10.2-59.5-15.4 c-13.3-3.5-26.6-7.2-39.9-10.7c-17.5-4.6-35.1-9.1-52.7-13.7c-14.7-3.8-29.4-7.7-44-11.7c-1.1-0.3-3.4-0.2-3-2.2 c0.4-1.9,2.2-1,3.5-0.7c12,3.1,23.9,6.3,35.9,9.4c21.5,5.7,42.9,11.4,64.4,17c24.8,6.5,49.6,12.9,74.4,19.5 c8.2,2.2,16.2,4.6,24.5,6.6C571.5,488.8,573.2,488.7,573.7,490.4z"></path> <path class="st6" d="M570.8,504.7c-0.3,0.6-0.7,1.1-1.3,1.3c-1.1,0.4-2.1,0-3.2-0.3c-15.4-4.1-30.8-8.2-46.2-12.3 c-18.9-5-37.7-10.3-56.7-15.1c-27.3-6.9-54.3-14.8-81.7-21.4c-5-1.2-9.9-2.8-14.9-4.3c-1-0.3-2.5-0.4-2.1-1.9s1.6-0.9,2.7-0.6 c9.4,2.5,18.7,5,28.1,7.5c15.6,4.1,31.2,8.1,46.7,12.4c17.5,4.8,35.1,9,52.7,13.7c24.7,6.5,49.2,13.1,73.9,19.7 C569.7,503.5,570.8,503.4,570.8,504.7z"></path> <path class="st6" d="M579.9,448.6c-3-0.7-6-1.4-9-2.2c-11.5-3-23-6.1-34.5-9.2c-20.9-5.5-41.7-11.1-62.6-16.6 c-14.8-3.9-29.7-7.7-44.5-11.7c-15.9-4.2-31.7-8.5-47.6-12.7c-1.5-0.4-3.1-0.5-4.5-1c-0.9-0.3-1.5-1.3-1-2.3 c0.4-1,1.2-0.5,2-0.4c9.5,2.5,19.1,4.8,28.6,7.3c16,4.2,32.1,8.5,48.1,12.8c11,3,22.1,6,33.1,8.9c11.5,3,23,6,34.5,9 c11.2,3,22.4,6,33.6,9c7.5,2,15.1,4,22.7,6c0.6,0.2,1.3,0.1,1.9,0.3c0.9,0.3,1.9,0.7,1.5,1.9 C581.7,448.8,580.8,448.5,579.9,448.6z"></path> <path class="st6" d="M588,433.2c-0.1,0.8-0.8,1.2-1.6,1.1c-1.7-0.3-3.4-0.6-5-1.1c-15.7-4.2-31.4-8.4-47.2-12.6 c-17.2-4.5-34.5-9-51.8-13.5c-24.6-6.5-49.3-13.1-73.9-19.6c-7.6-2-15.1-4-22.7-5.9c-0.6-0.2-1.3-0.1-1.8-0.4 c-1.1-0.5-2.7-0.8-2.2-2.5c0.5-1.5,1.8-0.7,2.8-0.4c12.5,3.3,25.1,6.7,37.7,10c11.2,2.9,22.4,5.8,33.6,8.7 c20.4,5.4,40.8,11,61.2,16.3c20,5.2,40,10.4,60,15.5c3.2,0.8,6.3,1.8,9.5,2.7C587.3,431.9,588,432.1,588,433.2z"></path> <path class="st6" d="M565.4,520.3c-6.8-1.8-13-3.3-19.2-4.9c-26.4-6.8-52.6-14-79-20.8c-22.6-5.8-45-12.2-67.6-17.8 c-11.7-2.9-23.3-6.2-34.9-9.4c-0.6-0.2-1.2-0.4-1.7-0.7c-0.7-0.4-1.4-0.9-1.1-1.8c0.4-1.4,1.4-0.7,2.3-0.5 c4.7,1.1,9.5,2.2,14.1,3.4c14.4,3.8,28.7,7.7,43.1,11.5c20.1,5.4,40.2,10.7,60.3,16c15.4,4.1,30.8,8.2,46.3,12.3 c11.5,3,23,5.9,34.5,8.9c1.1,0.3,2.1,0.6,3.2,0.9c1,0.3,1.9,0.6,1.5,1.9C566.8,520.5,565.7,520.3,565.4,520.3z"></path> <path class="st6" d="M579.4,462.3c-2.1,0.8-3.9,0.5-5.7,0c-9.1-2.5-18.2-4.8-27.2-7.2c-15.7-4.2-31.4-8.5-47.2-12.6 c-17.2-4.5-34.5-9-51.8-13.5c-23.3-6-46.5-12.7-69.9-18.3c-1.5-0.4-4.5-0.5-4-2.4c0.6-2.3,3-0.9,4.7-0.5 c20,5.3,39.9,10.6,59.9,15.8c17.1,4.5,34.2,8.9,51.3,13.4c20,5.2,39.9,10.5,59.9,15.8c9.1,2.4,18.2,4.8,27.2,7.2 C577.7,460.3,578.8,460.6,579.4,462.3z"></path> <path class="st6" d="M381.2,502.5c-0.9-1.3-1.8-2.5-2.7-3.8c4.7-0.1,8.8,2,13.2,3c12.3,3,24.5,6.4,36.8,9.6 c20.3,5.4,40.5,10.8,60.8,16.2c20,5.3,40,10.4,59.9,15.6c3.5,0.9,6.9,2.1,10.4,2.8c0.6,0.1,1.2,0.5,1.7,0.7 c0.6,0.3,1.1,0.8,0.9,1.4c-0.2,0.8-0.8,1.4-1.8,1.2c-2.5-0.5-4.9-1-7.3-1.7c-16.6-4.7-33.2-8.9-49.9-13.2 c-19.2-5-38.4-10.3-57.6-15.4c-20.4-5.4-40.9-10.7-61.3-16.1C383.4,502.7,382.3,502.5,381.2,502.5z"></path> <path class="st6" d="M661,458.1c-0.1,1.7-0.8,3.2-1.6,4.6c-3.8,0.6-6.2,3.5-9,5.6c-9,6.5-17.7,13.3-26.5,20.1 c-10.2,7.8-20.3,15.6-30.4,23.4c-1,0.8-2.1,1.4-3.1,2.1s-1.8,0.5-2.4-0.4c-0.6-0.9,0-1.4,0.7-1.9c4-3.1,7.8-6.2,11.8-9.2 c15.8-12,31.8-23.8,47.5-35.9c3.2-2.5,6.6-4.8,9.6-7.5C658.5,458.2,659.7,458,661,458.1z"></path> <path class="st6" d="M655.1,489.2c0,1.3,0.1,2.5,0.1,3.8c-4.7,1.7-8.3,5-12.1,7.9c-10,7.6-20,15.1-29.9,22.7 c-8.3,6.3-16.6,12.8-25,19c-0.8,0.6-1.5,1.2-2.3,1.6c-1,0.4-1.9,2.4-3,0.7c-0.8-1.2,0.5-2.3,1.5-3.1c6.2-4.7,12.5-9.4,18.8-14.1 c8-6,15.9-12.2,23.9-18.2c8.6-6.5,17.3-12.9,26-19.4C653.7,489.6,654.3,489.3,655.1,489.2z"></path> </g> </g> <path class="st4" d="M706,442.6c2.1,1.1,4.1,2.4,5.8,4c4,3.9,5.6,8.6,3.9,14.1c-1.6,5.4-4.8,9.8-8.4,14 c-6.7,7.6-14.5,13.8-22.7,19.7c-5.2,4.1-13,6.8-13,6.8c-16.9,1.6-16.6-8.5-16.6-8.5c0-1.3-0.1-2.5-0.1-3.8 c0.7-8.9,2-17.8,4.3-26.5c0.8-1.5,1.5-3,1.6-4.6c1.3-2.3,2.5-4.6,3.9-6.9c5.2-8.3,12.2-13.6,22.6-13.2 C687.2,437.7,697.3,438.4,706,442.6z"></path> <path class="st4" d="M350,489.3c11.1-0.3,21.2,2.2,29.7,9.6c0.9,1.3,1.8,2.5,2.7,3.8c2,5.5,0.2,10.1-3.2,14.4 c-4.5,5.8-10.4,9.9-16.5,13.8c-11.3,7.2-23.3,12.9-35.6,18.2l-10.2,4.4c-7.7,3.1-13.5,0.8-17.7-6.3c-2.6-4.5-3.7-9.4-4.1-14.3 c-0.6-8.1-0.3-16.3,1.4-24.3c0.5-2.5,1.6-3.8,3.8-4.8C300.2,503.6,318.4,493.5,350,489.3z"></path> </g> </g> <polygon class="st7" points="296.8,505 268.4,506 264.2,428 262.3,514.6 "></polygon> <polygon class="st0" points="555.1,942.5 525.3,803 542.4,950.7 "></polygon> </svg> 