<?xml version="1.0" encoding="UTF-8"?> <!-- Generator: Adobe Illustrator 24.0.0, SVG Export Plug-In . SVG Version: 6.00 Build 0) --> <svg xmlns="http://www.w3.org/2000/svg" xmlns:xlink="http://www.w3.org/1999/xlink" x="0px" y="0px" viewBox="0 0 709.1 600" style="enable-background:new 0 0 709.1 600;" xml:space="preserve"> <style type="text/css"> .st0{fill:#EDEDED;} .st1{fill:#454B69;} .st2{fill:#5AC1DA;} .st3{fill:#EF7745;} .st4{fill:#EEEEF0;} .st5{fill:#302E41;} .st6{fill:#E8B277;} .st7{fill:#F4B7B8;} .st8{fill:#464353;} .st9{fill:#F1F1F1;} .st10{fill:#E86638;} </style> <g id="Calque_2"> <path class="st0" d="M408.7,6.1c170-0.1,264.8,94.9,285.9,243C715.8,397.3,745,669.6,334.7,541s-251-350.6-207.3-403.4 C183,70.5,275.8,6.2,408.7,6.1z"></path> <ellipse class="st1" cx="484.25" cy="557.92" rx="149.17" ry="36.13"></ellipse> </g> <g id="Calque_1"> <rect x="366.1" y="56.2" class="st1" width="330.7" height="121.2"></rect> <rect x="4" y="53.3" class="st2" width="327.9" height="327.9"></rect> <g> <path class="st3" d="M218.2,314.7c-10.1,5.4-20.6,9.4-31.9,11.4c-40.8,7.4-83-12.6-102.9-48.8c-26.9-48.9-9-108.8,40.2-135 c14.5-7.7,30-11.3,46.4-11.2c0.1,1,0.2,1.9,0.2,2.9c0.2,8.8,0.5,17.5,0.7,26.3c-3.6,0.3-7.3,0.5-10.9,0.9 c-40.3,5.1-67.6,45.1-57.7,84.7c10.5,41.9,55.6,63.8,95.2,46.4c28.8-12.7,45.4-44.2,39.6-75.2c-1.3-7.2-4-14-7.1-20.6 c4.5-3.4,9.1-6.7,13.6-10.2c3.1-2.4,6.6-4.5,9.3-7.4c1.1-0.1,1.2,0.9,1.6,1.5c7.8,13.6,12.4,28.3,12.9,44 c1,39-15.4,68.8-48.3,89.7C218.8,314.3,218.5,314.5,218.2,314.7z"></path> <path class="st4" d="M252.9,178.9c-2.7,2.9-6.2,4.9-9.3,7.4c-4.5,3.5-9.1,6.8-13.6,10.2c-5-8.3-10.9-15.8-18.8-21.7 c-8.8-6.6-18.6-11.2-29.6-13.1c-3.6-0.6-7.2-0.5-10.7-1.4c-0.2-8.8-0.4-17.5-0.7-26.3c0-1-0.1-1.9-0.2-2.9 c8.1,0.2,16.2,1.1,24.1,3.2c8.3,2.2,16.1,5.4,23.7,9.4c0.3,0.2,0.7,0.4,1,0.5c4.5,3.1,9.1,6.1,13.3,9.5c8,6.5,14.5,14.3,20.2,22.9 C252.8,177.3,253.1,178,252.9,178.9z"></path> <path class="st3" d="M455.6,295.1c-0.8,6,0.2,2.9-2,8.5c-0.6,1.6-0.9,3.5,0.4,4.1c-1.7-0.3-2.8-0.7-3.4,1s-1.7,3.1-3.1,4.2 c-1.9,1.5-2.5,3.6-2.4,5.8c0,1.9,0.1,3.9,0.6,5.8c0.6,2.7-0.3,4-2.8,4.6c-4.8,0.3-10.3-0.7-14.8-2c-2.3-0.7-2.6-2.4-2.2-4.5 c0.5-2.5,1.5-4.7,2.5-7s1.1-4.6-0.3-6.6c-2.3-3.5-2.5-7.3-2.3-11.2c0.6-15,2.2-29.9,3.1-44.9c0.3-4.9,0.4-9.7,0.3-14.6 c-0.3-9.1,1.3-18,2.4-27c0.7-6,1.6-12,2.4-17.9c0-0.2,0-0.5,0-0.7c1.1-4.1,1.4-8.4,2.1-12.7c1-5.9,1.5-11.9,2.9-17.7 c0.9-4,4.5-6.2,7.5-8.7c4.3-3.5,9.4-5.8,13.9-9.2c3.3-0.9,6-3.1,9.2-4.4c1.1-0.5,2-1.1,2.4-2.3c2.9-3.1,6.3-5.4,10.5-6.3 c5.9-1.3,11.8-0.9,17.6,0.4c6.1,0.4,10.5,4.3,15.2,7.6c10.4,7.3,20.7,14.8,31.1,22.1c2.8,1.9,4.4,4.6,5.9,7.4 c1.4,2.8,3.7,5.1,4.5,8.3c-0.2,0.4-0.5,0.7-0.5,1.1c-0.7,5.9-1.5,11.8-2.1,17.8c-0.7,6.5-1.2,12.9-1.8,19.4 c-1.3,5.2-1.3,10.5-2,15.8c-1.1,8.4-2.1,16.9-3.1,25.4v-0.1c-0.1,0.2-0.2,0.3-0.4,0.3c-1,8.2-1.9,16.4-4.3,24.4 c-0.9,2.8-1.7,5.9-1.1,8.9c0.8,3.6-0.7,5.9-3.5,7.7c-1.4,0.9-2.7,2.1-2.3,3.9c0.4,1.9,0.9,4,2.1,5.6c-0.2,1.4,1,2.7,0.5,4.2 c-1.3,0.8-2.8,1-4.3,1.1c-4.4,0.4-8.8,0.2-13.2,0.1c-8.8-0.3-17.6-1-26.5-1.6c-13.1-1-27.2-2.3-40.3-3.9c-0.1-1.2,0.1-2.3,0.5-3.4 "></path> <path class="st5" d="M527.1,522.6c1-2.5-0.4-4.1-2.4-5.2c-2.6-1.4-4-3.7-4.7-6.4c-0.7-2.6-0.7-5.3-0.5-7.9c0.1-1.4,0-2.8-0.3-4.2 c-1.9-7.8-3.7-15.7-5.6-23.6c-2.7-11.1-4.4-22.5-6.9-33.6c-2.1-9.1-5.1-18.1-7.9-27.1c-3-9.9-6.2-19.8-9.3-29.8 c-1.1,0.9-1.1,2-1.4,3c-9.2,27.4-18.3,54.9-27.6,82.3c-1.4,4-2,7.9-1,12c1.3,5.8-1.8,11.2-1.2,17c0,0.3-0.1,0.8-0.4,1 c-2.1,2-1.3,4.2-0.6,6.4c0.5,1.5,1,3,1.4,4.6c0.6,2.3,0,4.2-2,5.9c-3,2.4-4.7,5.7-5.5,9.5c0,0-1.96,10.02-0.9,14.8 c2.4,0.2,3.1,2.1,3.7,4c1.8,5.8,1.8,11.7,1.6,17.6c-0.1,3.3-1.6,4.6-4.9,4.5c-5.2-0.2-10.2,0.9-15.4,0.6c-2.5-0.2-4.6-0.5-6.4-2.8 c-1.9-2.5-5.4-2.8-8.3-2.9c-3.6-0.1-6.1-2.2-8.8-3.9c-1.3-0.8-2.3-1.9-3.4-2.9c-3.6-3.5-2.8-7.5-1.3-11.5c1.1-2.9,3.8-3.3,6.5-3.8 c3.3-0.6,5.8-2.3,7.4-5.3c0.6-0.5,1.2-0.9,1.7-1.5c1.5-1.6,3.1-2.1,5-0.8l1.3-1.7c-0.2-0.8-0.4-1.5-0.7-2.3 c1.4-1.6,1.9-3.2,0.1-4.8c-0.7-3.5-2.4-6.7-3.5-10c-0.8-2.3-1-4.4,1-6.4c1.3-1.3,1.7-3.3,1.2-5c-2.1-7.6-0.6-15.2,0.3-22.7 c0.4-4,0.3-7.9-0.1-11.9c-1.3-13.1-0.4-26.2,1.3-39.3c0.8-6.4,1.3-12.9,1.5-19.4c0.1-3.7-1.3-7.4-0.6-11.1c1.4-3,1.3-6.3,1.7-9.5 c0.2-1.5,0.6-2.9,0.7-4.4c0.6-7.3,3-14.4,3.6-21.7h-0.1c0.6,0.1,0.4-0.3,0.4-0.6c1.9-3.2,3.2-6.5,4-10.1 c1.6-7.4,2.3-14.9,2.4-22.4c2.5-0.6,3.5-1.9,2.8-4.6c-0.4-1.9-0.5-3.8-0.6-5.8c-0.1-2.3,0.5-4.4,2.4-5.8c1.4-1.1,2.6-2.5,3.1-4.2 c0.6-1.8,1.7-2.3,3.4-2c0.3,0,0.8,0.2,1.3,0.4c13.1,1.6,26.2,2.8,39.3,3.9c8.8,0.7,17.6,1.3,26.5,1.6c4.4,0.2,8.8,0.3,13.2-0.1 c1.5-0.1,3-0.3,4.3-1.1c-0.4,2.3,0.4,4.5,0.6,6.8c0.7,7-1.7,13.7-2.4,20.6c-1.1,9.9-2.1,19.8-2.3,29.7c-0.1,4.2,0,8.3,1,12.4 c0.6,2.4,1.1,5,0.8,7.4c-1.3,9.6,2,18.4,4.4,27.3c2.4,9.1,4.7,18.2,5.8,27.6c0.3,2.9,0.1,5.6-0.5,8.4c-2.2,10.6-2.3,21,2.7,30.9 c2.2,4.4,2.5,8.8,0.4,13.3c-2.3,4.8-0.9,8.5,2.8,11.8c3.8,3.4,3.7,3.7,0.9,8c-1.5,2.2-3.4,4.3-3.1,7.4c0,0-1.07,6.93,1.9,12.3 c0.3,0.4,0.8,0.9,0.8,1.3c1.2,6.4,2,12.8,0.6,19.2c-0.7,2.9-2.3,4-5.4,4c-1.9,0-3.9,0.4-5.8,0.3c-4-0.1-8.5,0.6-10.9-4.2 c-0.3-0.7-1.1-1.1-1.8-1.6c-3.7-2.7-8.2-3.7-12.4-5.3c-5.5-2.1-7.1-4.3-6.7-9.8c0.3-3.5,1.3-6.4,5.3-7.2c2.2-0.5,3.9-2,5.8-3.2 C522.84,528.48,527.1,522.6,527.1,522.6z"></path> <path class="st2" d="M430.7,388.4c-0.4,3.2-0.3,6.5-1.7,9.5c-10.1,0-20.3-0.1-30.4,0.1c-2.9,0.1-3.5-1-3.8-3.5 c-1.8-13.6-1.7-27.2,0.6-40.8c0.5-0.1,1.1-0.1,1.6-0.2c8.3,0,16.7,0,25,0c0.6,0.7,0.4,1.5,0.5,2.3c0.6,4.9,3,7.6,7.9,8.6 C429.3,372.4,429.2,380.4,430.7,388.4z"></path> <path class="st6" d="M430.5,364.4c-4.9-1-7.3-3.6-7.9-8.6c-0.1-0.8,0.1-1.6-0.5-2.3c0.3-9.2,2.6-17.9,5.9-26.4 c4.5,1.3,9.1,2.4,13.8,2c-0.1,7.6-0.8,15-2.4,22.4c-0.8,3.6-2.1,6.9-4,10.1c-0.1,0.2-0.3,0.4-0.4,0.6h0.1 C433.5,362.9,432.2,364.2,430.5,364.4z"></path> <path class="st7" d="M397,353.5c-0.5,0.1-1.1,0.1-1.6,0.2C395.9,352.9,396.4,353.1,397,353.5z"></path> <path class="st3" d="M537.4,307.3c-1.3-1.7-1.7-3.7-2.1-5.6c-0.4-1.7,0.9-3,2.3-3.9c2.8-1.8,4.3-4.1,3.5-7.7c-0.6-3,0.2-6,1.1-8.9 c2.4-8,3.3-16.2,4.3-24.4c0.1-0.1,0.3-0.2,0.4-0.3v0.1c1.9-3.9,3.7-7.8,5.5-11.7c0.3-0.6,0.3-1.4,0.3-2.1 c-0.2-9.1-0.5-18.2-0.7-27.4c0.6-6.5,1.2-12.9,1.8-19.4c0.6-5.9,1.4-11.8,2.1-17.8c0-0.4,0.4-0.8,0.5-1.1 c2.4,4.2,3.6,8.9,5.3,13.3c0.4,1,0.4,2.1,1.3,2.8c1.8,6,3.8,12,5.5,18c3.7,12.6,7.2,25.2,7.8,38.5c0.3,5.9-1,11.1-4.5,16 C561.6,280.7,549.8,294.2,537.4,307.3z"></path> <path class="st8" d="M452,88.7c-4-3.2-3.8-7.5,0.8-9.4c6.3-2.5,11.9-6.3,18.2-8.4c10.4-3.5,26.2-0.2,33.6,9.3 c4.7,6.1,6.4,13,2.5,20.1c-3.8,6.8-6.6,13.8-7.1,21.7c-0.1,1.1-0.7,1.3-1.6,1.3c0.1-2.9-1.7-4.2-4.2-4.6c-2.6-0.4-4-2-5-4.2 c-1.1-2.7-2.1-5.5-3.5-8c-3-5.5-5.2-6.1-10.7-3.4c-0.3,0.2-0.6,0.3-1,0.5c-3.1,1.3-5.1,0.6-5.8-2.7c-0.7-3.4-2.5-5.1-5.9-5.4 c-1.5-0.1-3.5-0.9-3.3-2.5c0.4-3.6-1.7-3.7-4.2-3.8C453.9,89.3,452.9,88.9,452,88.7z"></path> <path class="st3" d="M427.6,131.8c-5.4,0-10.8-0.1-16.3,0c-1.8,0-2.4-0.6-2.6-2.4c-2-13.3-2-26.7,0-40c0.2-1.6,0.7-2.3,2.4-2.3 c11,0.1,22,0.1,33,0c1.7,0,2.2,0.4,1.8,2.1c-3.6,13.5-3.5,27,0,40.5c0.4,1.6,0,2-1.6,2C438.7,131.7,433.2,131.8,427.6,131.8z"></path> <path class="st3" d="M634.9,87.2c5.4,0,10.8,0.1,16.3,0c1.7,0,2.3,0.4,2.5,2.2c2,13.4,2,26.8,0,40.3c-0.2,1.6-0.8,2.2-2.5,2.2 c-11-0.1-22-0.1-33,0c-1.8,0-2.1-0.6-1.7-2.2c3.6-13.4,3.5-26.8,0-40.2c-0.5-2,0.2-2.2,1.9-2.2C623.9,87.3,629.4,87.2,634.9,87.2z "></path> <path class="st3" d="M531.9,87.2c5.4,0,10.8,0.1,16.3,0c1.7,0,2.5,0.3,2.8,2.2c2,13.4,2,26.9,0,40.3c-0.2,1.6-0.8,2.2-2.5,2.2 c-11-0.1-22-0.1-33.1,0c-1.7,0-2.1-0.2-1.7-2.1c3.6-13.6,3.6-27.2-0.1-40.8c-0.4-1.6,0.1-1.8,1.4-1.8 C520.7,87.2,526.3,87.2,531.9,87.2z"></path> <path class="st2" d="M585,161.8c-5.5,0-11-0.1-16.5,0c-1.6,0-2.1-0.5-2.4-2.1c-2-13.4-2-26.9,0-40.3c0.2-1.5,0.7-2.1,2.3-2.1 c11,0.1,22,0.1,33.1,0c2,0,2.1,0.6,1.7,2.3c-3.4,13.2-3.4,26.5,0,39.8c0.5,2.1-0.1,2.4-1.9,2.4C595.9,161.8,590.4,161.8,585,161.8 z"></path> <path class="st6" d="M452,88.7c0.9,0.2,1.9,0.6,2.8,0.6c2.5,0,4.6,0.1,4.2,3.8c-0.2,1.7,1.7,2.4,3.3,2.5c3.4,0.3,5.2,2,5.9,5.4 c0.7,3.2,2.7,4,5.8,2.7c0.3-0.1,0.6-0.3,1-0.5c5.5-2.7,7.7-2.1,10.7,3.4c1.4,2.6,2.4,5.3,3.5,8c1,2.3,2.4,3.8,5,4.2 c2.5,0.4,4.3,1.7,4.2,4.6c0,2.9,1.2,5.6,1.5,8.5c-5.8-1.3-11.7-1.7-17.6-0.4c-4.2,0.9-7.6,3.2-10.5,6.3c-0.1-2.5-0.6-4.9-1.1-7.3 c-0.2-1-0.5-1.6-1.6-1.8c-2.8-0.4-5.4-1.6-8-2.7c-5.2-3.5-9.4-7.8-11.6-13.8C446.5,104,447.6,96.2,452,88.7z"></path> <path class="st2" d="M461.1,125.9c2.6,1.1,5.2,2.3,8,2.7c1.1,0.2,1.4,0.8,1.6,1.8c0.5,2.4,1,4.8,1.1,7.3c-0.4,1.1-1.3,1.8-2.4,2.3 c-3.1,1.3-5.8,3.5-9.2,4.4C460.2,138.3,460.1,132.1,461.1,125.9z"></path> <path class="st1" d="M170.9,160.2c3.5,0.8,7.2,0.7,10.7,1.4c11,1.9,20.7,6.5,29.6,13.1c7.8,5.9,13.8,13.4,18.8,21.7 c3.1,6.6,5.7,13.3,7.1,20.6c5.8,31-10.8,62.5-39.6,75.2c-39.6,17.5-84.6-4.5-95.2-46.4c-9.9-39.5,17.4-79.6,57.7-84.7 C163.6,160.7,167.3,160.5,170.9,160.2z"></path> <path class="st9" d="M552.5,245c-1.8,3.9-3.7,7.8-5.5,11.7c1-8.5,1.9-16.9,3.1-25.4c0.7-5.3,0.7-10.6,2-15.8"></path> <path class="st9" d="M546.9,256.6c-0.1,0.1-0.3,0.2-0.4,0.3C546.7,256.9,546.9,256.8,546.9,256.6z"></path> <path class="st9" d="M434.9,362.3c0.1-0.2,0.3-0.4,0.4-0.6C435.3,362,435.5,362.4,434.9,362.3z"></path> </g> <rect x="223.5" y="85.3" class="st4" width="70.5" height="24.2"></rect> <rect x="223.5" y="330.6" class="st4" width="70.5" height="24.2"></rect> <path class="st10" d="M454.6,307.3c-0.5-0.1-1.1-0.3-1.6-0.4c-1.3-0.6-2-1.3-1.4-2.7c2.1-4.8,3.2-9.9,4-15c1-6.8,2.4-13.5,5.1-20.1 c2.7-6.5,3.8-13.3,4.1-20.3c0.2-4.1,1.2-8.1,1.7-12.1c1-7.8,1.7-15.7-0.4-23.5c-1.7-6.6-2.3-13.3-4.4-19.8 c-1.2-3.7-2.5-7.3-5.2-10.4c-0.4-0.4-0.5-0.9-0.9-1.8c2.2,0.7,3.3,1.9,4.3,3.2c3.8,4.6,5.1,10,6.3,15.3c1.6,7,3.1,14,4.2,21 c0.8,5,0,10.2-0.6,15.2c-0.6,4.6-1.4,9.1-1.9,13.7c-0.9,8.5-2.1,17-5.9,25c-2.1,4.4-2.5,9.1-3.1,13.8c-0.7,5.4-1.9,10.8-3.8,16 C454.8,305.3,454.5,306.3,454.6,307.3z"></path> </g> </svg> 