<?xml version="1.0" encoding="UTF-8"?> <!-- Generator: Adobe Illustrator 24.1.0, SVG Export Plug-In . SVG Version: 6.00 Build 0) --> <svg xmlns="http://www.w3.org/2000/svg" xmlns:xlink="http://www.w3.org/1999/xlink" version="1.1" id="Calque_1" x="0px" y="0px" width="861px" height="817.3px" viewBox="0 0 861 817.3" style="enable-background:new 0 0 861 817.3;" xml:space="preserve"> <style type="text/css"> .st0{fill:#E3E6EF;} .st1{fill:#9D9DB5;} .st2{fill:#302E41;} .st3{fill:#5AC1DA;} .st4{fill:#9AA06B;} .st5{fill:#51547E;} .st6{fill:#EF7745;} .st7{fill:#E8B277;} .st8{fill:#3F3D56;} .st9{fill:#513131;} .st10{fill:#454B69;} .st11{fill:#BBBDC8;} .st12{fill:#EEEEF0;} .st13{fill:#A16565;} .st14{fill:none;stroke:#194084;stroke-width:4;stroke-linecap:round;stroke-linejoin:round;stroke-miterlimit:10;} .st15{fill:none;stroke:#FFFFFF;stroke-width:4;stroke-linecap:round;stroke-linejoin:round;stroke-miterlimit:10;} .st16{fill:none;stroke:#1BB9FF;stroke-width:4;stroke-linecap:round;stroke-linejoin:round;stroke-miterlimit:10;} </style> <path class="st0" d="M157.2,684.3c-0.6-8.8-0.6-8.8,24.8-8.8c26,0,26,0,25.1,8.7C190.3,684.3,173.9,684.3,157.2,684.3z"></path> <path class="st0" d="M78.8,600.6v43.9c0.3,10.8,0.1,21.6,0.1,32.4c0.1,8.1-0.9,6.8,7.4,7.2c4.2,0.2,8.7-1.4,12.8,1.1 c2.7-0.7,5.3-0.8,7.9,0.4c1-2,3.1-1.5,4.8-1.5c9.2-0.1,24.5-0.1,33.7,0c2,0,3.8,0,5.2-1.8c0-1.8-5.9-3.7-5.9-5.5 c-15.9,0-31.9,0-47.8-0.1c-1.7,0-3.9,1-4.5-1.7v-87.8L78.8,600.6z"></path> <polygon class="st0" points="587,523.8 679.1,554.8 703.5,548.3 711.5,528 707.2,523.3 600.4,511.3 "></polygon> <polygon class="st0" points="122.4,518 156.7,558.2 225.4,545.6 238.8,536.4 275.6,525.5 309.6,520.3 302.4,504.6 "></polygon> <path class="st1" d="M297.4,523.5c1.4-0.4,2.8,0.2,4.4-0.1c-0.3,12.4,0.5,24.6-0.4,37c-4.8-10.3-12.1-23.5-17.6-33.5L297.4,523.5z"></path> <rect x="95.9" y="560.1" class="st2" width="151" height="113.7"></rect> <g id="Calque_2_1_"> </g> <path class="st3" d="M64.8,296.6c-0.3-8.3-0.4-16.7,1.6-25c1-4.6-0.4-9.1-0.9-13.5c-1.4-11.7,0.8-22.6,8.2-32.2 c11.5-14.8,25.6-26,43.4-32.7c9.8-3.7,19.2-8.4,28.8-12.6c2.4-1.1,4.8-2,7.4-2.1c2.6,0.8,5.2,1.5,7.8,2.4 c10.1,3.8,20.1,7.5,30.7,9.3c5.6,1,11.4,1.4,16.6,4.3c1.3,0.8,2.8,1.5,3.8,2.6c9.6,10.8,22.5,16.5,35.2,22.2 c6.3,2.9,12.4,5.9,15.2,13c0.6,1.6,2.4,2.7,3.7,4c1.5,1.4,2.9,3,2.9,5c-0.2,10.2,4.5,19.2,6.2,28.9c0.4,1.9,0.8,3.8,1.2,5.8 c0.8,6.7,1.6,13.4,2.4,20c0.2,4.5,0.5,8.9,1.6,13.3c-0.2,3.9,0.7,7.8,1.6,11.6c0.7,5.2,1.9,10.4,4.3,15.1c2.3,4.5,1,7.3-2.4,10.1 c-13.3,4.5-27.3,4.2-40.8,6.3c-3.9,0.6-4.8,1.1-3.3,5.6c2.7,8.3,3.8,16.8,5,25.4c1.8,13.2,7.5,24.2,17.9,32.8 c3.3,2.7,7.2,4.6,9.9,8.1c-0.1,0.5-0.1,0.9-0.2,1.5c0,2-0.5,3.8-1.6,5.7c-2.9,5-4,10.4-4.1,16.2c0,5.2,0,10.3-0.1,15.6 c-0.4,12.8-5.9,22-18.6,26.3c-8.5,2.9-16.8,6.2-25,10.1c-25.3,11.9-51.6,18.3-79.7,14c-2.6-15.8-2.4-31.8-1.7-47.8 c0.2-5.6,1.6-11.3,1.3-16.7c-0.9-15.7-2.7-31.5-5.1-47.1c-3.5-21.8-7.8-43.4-16.3-63.9c-4.2-10-8.8-19.9-17.5-26.9 C92.7,301.7,79.2,297.9,64.8,296.6z"></path> <path class="st4" d="M78.7,528c-10.7-4.8-22.2-7-33.5-10c-2.6-0.7-7-0.8-7.5-1.6c-1.9-3.8-6-5.4-7.9-9.4c-2.4-5.4-1.2-10.6-0.3-15.6 c0.9-5.3,0.5-10.5,1.4-15.8c1.1-7.6,0.6-15.5,1.2-23.1c1.3-17.5,1.2-34.9,0.7-52.4c-0.5-22.2-1.8-44.5-8.1-66.1 c-1.3-4.6-3.2-8.9-4.8-13.3c-5.4-14.5,2.6-19.8,14.5-20.9c3.3-0.3,6.7-0.3,10.1-0.4c15.2,0.3,29.7,4.3,44.4,8.1 c4.4,1.2,7.6,3.6,10.1,7.3c30.6,46.7,42.8,97.5,37.5,153.2c-2.7,29.2-2.2,58.7,17.8,84.2c-5-1.6-9.8-3.1-14.5-4.6 c-16.6-5.2-33-10.4-49.6-15.6C86.2,530.6,82.4,529.3,78.7,528z"></path> <path class="st4" d="M809.8,296.5c4.3,0.9,8.8,0,13.2,0.9c12.4,2.5,15.5,10.2,10.5,21.6c-3.6,8.2-6.1,16.7-7.7,25.6 c-1.7,10-3.1,19.9-3.7,30.1c-0.8,15-1.9,30-1.6,45c0.4,15.6,1,31.2,1.8,46.8c0.5,9.5,1.8,18.9,2.6,28.5c0.7,8.9-3.2,14.9-11.5,18.5 c-3.7,1.6-7.4,2.7-11.3,3.6c-12.1,2.6-23.6,6.9-35.3,10.4c-1.1,0.4-2.5,0.4-3.1,1.6c-20.1,6.4-40.2,12.8-60.3,19.1 c-1.5,0.5-2.9,1.7-4.7,0.7l0,0c6.3-5.6,10.3-12.6,12.9-20.6c6.6-20.5,7.7-41.6,6-62.8c-1.3-15.8-2.3-31.6-0.7-47.4 c3.8-39,16.7-74.7,38.5-107c1.7-2.6,3.8-4.8,7-5.7C777.9,301,793.5,296.8,809.8,296.5z"></path> <path class="st5" d="M698.8,549c1.7,1,3.1-0.3,4.7-0.7c20.1-6.3,40.2-12.7,60.3-19.1c9.1,25.1,18,50.2,27.1,75.3 c18.8,52.1,37.7,104.3,56.6,156.4c1.7,4.8,1.7,4.8-3.5,4.8c-11.9,0-11.9,0-16.3-10.8c-25-62.2-50-124.3-74.9-186.5 c-1.3-3.3-2.7-4.6-6.5-4.6c-12.4,0-24.7-0.5-37-0.8c-2.5-0.1-3.9,0.1-3.8,3.3c1.9,60.7,3.8,121.4,5.7,182.1c0,0.5,0.3,0.8,0.4,1.3 c0.5,18,0.8,36.1,1.4,54.2c0.1,3.3-0.6,4.2-3.8,3.9c-3.3-0.3-6.7-0.4-10.1,0c-3.9,0.5-5.2-0.8-5.3-4.8c-0.3-14.5-0.8-29.2-1.4-43.7 c-0.2-5.1-0.5-10.3-0.8-15.5c0-1.1,0.2-2.1,0.1-3.2c-1.3-37.2-2.5-74.5-3.8-111.7c-0.6-18.1-1.4-36.1-1.8-54.3 c-0.1-5.1-4.3-4.3-6.8-4.8c-2.8-0.5-1.4,2.7-1.5,4.1c-1.6,30.6-3.1,61-4.5,91.6c-0.1,2.3-2.4,4.6-0.1,6.9c-1.4,11.6-1.4,23.3-1.7,35 c-0.4,4.7-0.6,9.3-1,14c-0.1,1.2,0.5,3.1-1.6,3.1c-3.1,0.1-6.7,0.7-9.3-0.5c-1.7-0.7-0.1-4.4-0.3-6.7c-0.1-1.5,0-3,0.1-4.5 c-0.4-5.6,1.5-11.1,0.9-16.7c0.5-11.9,2-23.8,1.9-35.7c1.7-7.9,0.5-16,1.6-24c1.3-22,2.6-44,3.8-66c0.2-2.7,0.1-4.6-3.3-5.2 c-3.8-0.7-7.6-2.2-11.3-3.4c-3-0.8-6.1-2.4-9.1-2.4c-7,0.1-13.9,0.9-20.8,1.4c-2.3,0.2-3,1.7-3.8,3.4c-2.1,4.8-4.4,9.3-6.2,14.2 c-2.6,6.8-6.9,12.9-7.9,20.2c-1.6-0.2-1.6,1.1-1.9,2c-2,4.7-4.1,9.3-6.1,14c-0.7,1.7-1.6,3.5-2.3,5.3c-9.7,22-19.5,44.2-29.2,66.2 c-6.7,15.2-13.2,30.4-19.8,45.5c-3.7,8.1-7.5,16.2-11,24.4c-1.1,2.6-2.4,3.4-5.1,2.9c-4.9-0.8-9.9-1.3-15.3-2 c3.6-9.5,7-18.7,10.5-27.8c0.4-0.8,0.8-1.6,1.2-2.4c15.1-38.4,30.1-76.9,45.2-115.3c7.2-18.5,14.6-37,22-55.4 c0.2,0.1,0.3,0.2,0.5,0.2c0.1,0,0.4-0.1,0.4-0.2c0.7-6.7,3.9-12.5,6.3-18.7c0.5-1.2,1.7-2.7-0.4-3.4c-5-1.6-9.8-4.6-15.5-3.8 l-0.2-0.4c0.1-0.2,0.3-0.4,0.4-0.5c-0.2,0.1-0.4,0.1-0.5,0.2c-1.1-0.7-2.2-1.6-3.7-0.9c-7.8-3.5-16.1-5.1-24.2-7.3 c-3.9-1-8.3-1-12-3.9c2.3-1.4,4.4-1.5,6.5-1.6c8.9-0.4,17.5,1.7,26.1,3.2c6.5,1.1,12.7,4,19.5,3.5c-0.4,1.8,1.1,1.4,2,1.6 c11.9,3.2,23.8,6.2,35.6,9.6c14,4,27.8,8.9,41.9,12.5c13.4,3.5,27-6,28.9-19.4c1.4-1,1.6-2.5,2-3.9c6.4-22.4,5.9-45.4,4.6-68.3 c-0.1-2.2-1.6-2.7-2.8-3.6c3.5-1.5,1.3-4.4,1.7-6.7c0.3-2.4,0.5-4.8,0.6-7.2c1.2-15.9,3.7-31.7,5.9-47.4c2.5-11.6,5-23.1,7.5-34.8 c2.7-7.2,5.2-14.5,8.1-21.8c6.5-16.3,16.7-29.3,34-35.1c7-1.8,13.9-3.8,21.1-4.5c7.4,0.2,15-0.8,22,2.6c-16.3,0.4-31.9,4.5-47.4,9.1 c-3,0.9-5.2,3.1-7,5.7c-21.9,32.5-34.8,68.1-38.5,107c-1.6,15.8-0.5,31.6,0.7,47.4c1.6,21.1,0.6,42.3-6,62.8 C709.2,536.4,705.2,543.4,698.8,549c-0.2,0.2-0.5,0.4-0.6,0.5c0.2,0.1,0.4,0.2,0.6,0.2C698.8,549.4,698.8,549.3,698.8,549z"></path> <path class="st5" d="M233.2,566c-0.7-1.6-2.3-2.4-4.1-2.3c-1.8,0.1-3.7-0.5-5.4-0.5c-6.1,0-12.4-1.8-18.5-0.2 c-5.6,1.5-11.1,3.4-16.7,4.8c-2.7,0.7-3.8,2.2-3.6,4.8c0.4,3.3,0.8,6.6,0.9,10c0.3,9.5,1.1,19,1.7,28.5c1.3,18.5,2,37,2.8,55.4 c0.1,2.6,0.2,5.1,0.9,7.7c0,0.5,0.1,0.9,0.1,1.4c0.1,2.9,0.3,5.9,0.4,8.8c0.7,13.1,1.4,26.1,2.3,39.2c0.2,3-0.5,3.8-3.7,3.8 c-7.9-0.1-7.8,0.1-8.2-8c-0.5-11.7-1.3-23.3-1.9-35l-5.1-115.1h-13.8l2.1,115.2c-0.6,17.5-1.3,34.9-1.9,52.4 c-0.8,23.1-1.7,46.2-2.3,69.3c-0.1,3.8-1.3,4.7-4.7,4.4c-3.3-0.3-6.7-0.3-10.1,0c-3.5,0.3-4.7-0.7-4.6-4.5 c0.9-24.3,1.6-48.6,2.4-72.9c0.5-16.8,0.8-33.8,1.3-50.6c0-1.8,0.1-3.7,0.1-5.5l0.8-4.8c0.1-8.2,0-16.4,0.8-24.5 c0.8-9.1,0.5-18.2,0.7-27.3c0.4-16.8,1.6-33.7,1.3-50.6c-0.1-3-0.7-4.3-4-4.3c-12.8,0.1-25.5,1.6-38.3,1c-1.5-0.1-2.8,0.4-3.4,1.8 c-3.3,8.6-8.3,16.6-9.4,26c-2.6,0.6-1.9,3.1-2.8,4.8c-4.4,10.8-8.8,21.6-13.3,32.4c-17.7,44.3-35.6,88.5-53.2,132.8 c-1.4,3.4-2.9,4.8-6.6,4.4c-3.9-0.4-7.9-0.1-12.4-0.1c3.6-9.9,7-19.4,10.3-28.9c12.5-34.6,25.1-69.2,37.5-103.7 c0.3-0.8,0.5-1.7,0.7-2.7c8.4-23,16.7-45.9,25.2-69c0.3-0.7,0.2-1.5,0.3-2.3c5.5-9.8,8.4-20.2,12.1-30.2c16.6,5.2,33,10.4,49.6,15.6 c4.8,1.5,9.5,3,14.5,4.6c-20-25.4-20.6-55-17.8-84.2c5.3-55.8-6.8-106.6-37.5-153.2c-2.5-3.8-5.7-6.1-10.1-7.3 c-14.5-3.8-29.1-7.9-44.4-8.1c4.5-2.7,9.6-2.3,14.5-2.6c1.9-0.1,3.9,0,5.9-0.1c14.4,1.4,27.9,5.1,39.3,14.2 c8.7,7,13.3,16.8,17.5,26.9c8.6,20.5,12.8,42.1,16.3,63.9c2.6,15.6,4.2,31.3,5.1,47.1c0.3,5.6-1.1,11.2-1.3,16.7 c-0.5,15.9-0.8,31.9,1.7,47.8c0.6,2.2,0.4,4.7,1.7,6.6c0.9,7.6,3.8,14.4,8.1,20.5c5.9,8.2,14.1,11.2,24.1,9.1 c4-0.8,7.8-2.7,11.6-3.9c23.9-7.2,47.8-14.3,72.1-19.9c14.5-3.4,28.9-7.4,44.1-6.9c1.5,0.5,2.8,1,4.6,1.6c-2.7,1.9-5.7,1.7-8.1,3.1 c-1.5,0.4-3,0.7-4.5,1c-4.4,1.1-9,1.2-13,3.6c-9.1,1.6-17.8,4.7-26.7,7.3c-5.6,1.6-5.9,2.1-3.6,7.6c6.3,15.5,12.4,30.9,18.3,46.6 c6,16,12.4,31.9,18.8,47.7c2.4,5.7,3.7,11.8,7,17c0.5,3.6,2.4,6.7,3.6,10c2.2,5.6,4.4,11.3,6.6,16.8c1.4,3.4,2.7,6.7,4.1,10.1 c6.3,16.3,12.5,32.6,18.8,48.9c2.6,6.5,5,13,7.8,19.9c-5.8,0.7-11.3,1.4-16.8,2.1c-2.9,0.5-3.1-1.9-3.8-3.6"></path> <path class="st6" d="M717.1,390.1c-2.2,15.7-4.7,31.5-5.9,47.4c-0.2,2.4-0.5,4.8-0.6,7.2c-5.7,0.8-11.2-0.6-16.7-1.1 c-14.5-1.3-27.4,2.4-39,11.2c-1,0.6-2.2,1.2-3,2c-5.5,5.6-12.2,7.8-19.9,7.3c-2.3-0.1-4.5,0.2-6.8,0.8c-3,0.8-4.6,2.1-2.5,5.4 c2.2,3.3-0.1,4-2.7,3.8c-3.8-0.4-5.9-3.1-6.7-6.6c-1-4.8-1.6-9.5,0-14.4c1.2-3.8,0.2-5.2-3.9-5.3c-7.4-0.1-14.4,2.2-21.5,3.5 c1.1-7.6,0.3-15.2,0.1-22.8c-0.1-2.4-0.4-5,0.4-7.2c2.7-8.1,3.3-16.4,3.9-24.7c0.7-5.1,1.5-10.3,2.2-15.5 c2.4-10.2,4.3-20.5,7.5-30.6c1.6-4.8,2.2-9.8,1.8-14.8c-0.3-3.6,0.2-7,1.6-10.2c1.1-2.7,1.5-5.6,1.2-8.5c1.7-3.3,0.6-6.8,0.7-10.2 c0-5.1,0.9-10.3-0.7-15.4c-0.1-5.2-0.2-10.4-0.3-15.6c0-0.3,0-0.6,0-0.9s0.1-0.5,0.1-0.9c1.5-9.9,1.7-19.9,4.6-29.7 c1.4-4.7,2.8-9.3,5.8-13.3c4.8,17.2,16.5,28.9,30.6,38.9c9.3,6.7,17.3,14.9,22.7,25.2c2.6,4.8,4.7,9.9,7,14.8 c2.2,10.7,4,21.3,3.9,32.3c-0.2,11.3-2.5,22.2-4.9,33.1c-1.2,3.1-2.3,6.2-3.7,9.2c-1.1,2.5-0.5,3.4,2.1,3.9 c9.9,1.9,19.8,2.9,29.8,3.4C708.5,392,712.9,391.8,717.1,390.1z"></path> <path class="st5" d="M387.8,275.8c9.1-6.5,12.1-17.6,10.6-27.7c-0.4-2.7-2.4-3.5-5-3.4c-10.6,0.1-21.3,0-31.9,0c-22,0-44.1,0-66.1,0 c-10.7,0-16.5-4.8-18.4-15.4c-0.1-0.4-0.5-0.7-0.7-1.1c0.1-4.9,0.1-9.9,0.2-14.8c2,0.1,3.9,0.3,5.9,0.3c82,0,163.9,0,245.9,0 c15.7,0,31.4,0.1,47.1,0.1c0,4.8,0,9.4,0,14.2c-0.1,10.4-6.4,16.7-16.7,16.7c-33.2,0-66.3,0-99.5,0c-6.5,0-7.2,0.7-7.2,7.4 c0,9.1,2.6,16.9,10.1,22.7l0,0c0.3,0.3,0.6,0.6,0.9,0.9c0,0.5,0.1,1.1,0.1,1.6c-25.1,0-50.1,0-75.1,0 C387.8,276.9,387.8,276.3,387.8,275.8z M435.4,228.1c-0.1-4.5-4.9-9.1-9.3-8.9c-4.3,0.2-8.8,4.7-8.9,9c-0.1,4.4,4.7,9.2,9.1,9.1 C430.8,237.3,435.5,232.5,435.4,228.1z"></path> <path class="st2" d="M156.2,168.8c-2.7-1.6-5.6-0.6-8.4-0.4c-3.2,0.4-6.4,0.6-9.4-0.6c-0.7-0.3-1.8-0.7-1.9-1.2 c-0.6-7-10.2-9.7-8.7-17.7c0.3-1.3-0.6-1.9-1.3-2.7c-4.1-5.5-5.1-11.5-2.7-18.1c0.3-0.8,1-1.6,0.4-2.6c-4.8-6.7-2.6-13.6-1.2-20.7 c0.7-3.8,2.6-7.5,0.8-11.6c-0.7-1.8,0.8-3,2.2-4.1c4-3,8.4-5.5,13-7.5c1.5-0.6,2.4-1,1.3-3.2c-1.6-3.2,0.5-5.6,3.5-6.8 c2.6-1,5.2-1.6,7.8-2.5c4.1-1.5,8-3.3,9.1-8c0.4-1.5,1.5-1.8,2.6-2.4c10.3-4.6,20.9-7.5,32.3-5c1.1,0.3,2.3,1.5,3.1-0.8 c0.5-1.2,2.5-0.4,3.8,0.2c3.2,1.3,5.5,3.7,8.1,5.9c3.2,2.8,6.3,5.9,11.1,5.4c1.5-0.2,1.8,0.7,2.3,1.7c2.5,5,6.8,7.7,11.9,9.2 c3.8,1.1,4.6,2.8,3.8,7c-0.9,5-0.3,10.3-4.4,14.4c-0.1,0.1,0.5,1,0.8,1.5c-1.8,3-0.4,6,0.7,8.7c3.1,7.9,2.2,15.2-2,22.3 c-1.1,1.9-1.6,4.1-4.8,3.9c-3-0.2-5.4-0.8-6.6-3.8c-1.6-4.3-5.3-5.5-9.2-4.8c-4.3,0.6-7,3.8-7.3,8.2c-0.3,2.8-0.4,5.9,0,8.7 c1.2,9.1-3.5,14.7-10.7,18.9c-4,2.3-8.2,3.9-12.7,4.9c-4.7,0.9-9.1,2-13.4,4.5c-2.7,1.6-5.6,1.2-8.4,0.3 C159.8,169.6,158.2,168.7,156.2,168.8z"></path> <path class="st2" d="M289.9,5.4c1.4-0.1,2.7-0.2,4.1-0.2c88.1,0,176.3,0,264.4,0c1.4,0,2.7,0.1,4.1,0.2c1.6,2.3,4,2.4,6.5,2.6l0,0 c0.4,2.7,2.5,3.7,4.6,4.7l0,0c0.2,2.7,1,5.3,1,8.1c-0.1,61.8-0.1,123.6,0.1,185.4c0,4.6-1.1,5.9-5.8,5.9 c-95-0.2-189.9-0.1-284.8-0.1c-5.9,0-5.9,0-5.9-6c0-59.2,0-118.5,0-177.7c0-5.6-0.5-11.3,1.7-16.7v0.1c1.5-0.9,3.5-1.5,3.8-3.7l0,0 C285.9,7.8,288.3,7.6,289.9,5.4z M567.7,27.7c-0.7-6-3.1-7.9-10.4-7.9c-87.4,0-174.7,0-262,0c-0.7,0-1.6,0-2.3,0 c-5.1,0.2-7.5,2.5-8.2,7.9c-0.1,1.6-0.3,3.3-0.3,5c0,52.7,0,105.3,0,158c0,8,2.3,10.2,10.4,10.2c87.5,0,174.9,0,262.4,0 c8.9,0,10.8-1.9,10.8-11.1c0-52.1,0-104.1,0-156.2C568,31.6,567.8,29.7,567.7,27.7z M426.6,16.2c1.9-0.5,3.6-1.6,3.3-4 c-0.3-2-1.6-3.3-3.8-3.2c-2.3,0.2-3.7,1.6-3.4,3.9C422.9,14.9,424.4,16,426.6,16.2z"></path> <path class="st7" d="M156.2,168.8c1.9-0.3,3.6,0.7,5.3,1.2c2.8,0.8,5.8,1.3,8.4-0.3c4.1-2.5,8.7-3.6,13.4-4.5 c4.5-0.9,8.8-2.7,12.7-4.9c7.2-4.2,11.9-9.8,10.7-18.9c-0.4-2.8-0.3-5.8,0-8.7c0.5-4.4,3-7.5,7.3-8.2c3.9-0.6,7.5,0.5,9.2,4.8 c1.2,3,3.6,3.7,6.6,3.8c3.2,0.2,3.7-2,4.8-3.9c4.2-7.1,5.1-14.4,2-22.3c-1-2.7-2.6-5.6-0.7-8.7c14.4,18.7,9.4,49.2-10.4,64.5 c-0.4,0.3-0.7,0.6-1.1,0.8c-13.3,6.1-15.5,17.9-15.9,30.7c-5.1-2.9-11-3.3-16.6-4.3c-10.7-1.8-20.7-5.5-30.7-9.3 c-2.6-0.9-5.2-1.6-7.8-2.4C154.3,175.2,155.2,172,156.2,168.8z"></path> <path class="st8" d="M279.7,11.6c-2.2,5.4-1.7,11.1-1.7,16.7c0,59.2,0,118.5,0,177.7c0,5.9,0,6,5.9,6c95,0,189.9,0,284.8,0.1 c4.7,0,5.9-1.3,5.8-5.9c-0.2-61.8-0.1-123.6-0.1-185.4c0-2.7-0.8-5.4-1-8.1c2.1,2.7,2.6,5.8,2.6,9c0,62.8,0,125.5,0,188.3 c0,1.3,0.4,2.7-0.7,3.9c-15.7,0-31.4-0.1-47.1-0.1c-82,0-163.9,0-245.9,0c-2,0-3.9-0.2-5.9-0.3c0-56.9,0-113.7,0-170.6 c0-8.3,0.1-16.7,0.2-25.1C277.5,15.6,277.8,13.1,279.7,11.6z"></path> <path class="st6" d="M787.8,293.9c-7.2,0.6-14.2,2.7-21.1,4.5c-1.4-9.1-4.7-17.9-3.9-27.4c0.1-3.8,1.3-7.4,3.3-10.7 c3.5-5.7,8.9-9.3,14.2-13c4.6,8.2,3.8,17.1,3.2,26.1C783.1,280.6,786.3,287.1,787.8,293.9z"></path> <path class="st8" d="M573.5,12.6c-2.1-1-4.2-1.9-4.6-4.7C571.1,8.8,572.6,10.5,573.5,12.6z"></path> <path class="st8" d="M569,7.9c-2.5-0.2-4.8-0.4-6.5-2.6C565,5.4,567.2,6.2,569,7.9z"></path> <path class="st8" d="M289.9,5.4c-1.6,2.2-4,2.5-6.5,2.7C285.2,6.3,287.4,5.5,289.9,5.4z"></path> <path class="st8" d="M283.5,7.9c-0.3,2.2-2.3,2.7-3.8,3.7C280.5,9.9,281.8,8.6,283.5,7.9z"></path> <path class="st0" d="M269.7,649.6c0,18.3,0.2,42.5,0.2,60.8c0,1.3-0.5,2.7,0.8,3.8c-1.9,1.8-9.9,3.4-11.7,2.2c-1.4-0.9-1-2.5-1-3.8 c0-8.1-0.2-16.1,0.1-24.2c0.1-3.5-1.1-4.8-4.5-4.3c-3.8,0.6-7.9-1.4-11.4,1.4c-3.2-1.8-6.4-1.9-9.7-0.2c-1-1.6-2.7-1.2-4.1-1.2 c-11.9,0-23.9,0-35.8,0c-0.1-2.9-0.3-5.9-0.4-8.8c4.6,0,9.1,0,13.6,0c12.5-0.2,25.2,0.5,37.7-0.4c2.5-0.9,1.6-3,1.6-4.7 c0.1-23.2,0-53.6,0-76.8L269.7,649.6z"></path> <path class="st2" d="M407.3,663.3c-4,9.2-11.5,13.9-21.1,15.3c-8.5,1.2-16.6,3.8-24.4,7.2c-10.1,4.4-20.8,5.8-31.7,5.9 c-2.7-0.6-5.6-1.2-8.3-1.8c-2.2-1.6-5.4-2.6-6.2-5.4c-1.3-4-4-3.9-7.2-3.4c-2.2-5.6-4.4-11.3-6.6-16.8c6.9-1.6,12.5-5.9,19.2-8.2 c0.6,1.2,1,2.4,0.9,3.7c-2.7,0.8-3.3,3.3-4.5,5.4c-0.7,1.3-0.5,2.2,0.9,2.9c4,2.2,7.8,4.7,12.4,5.6c7.5,1.5,14.8,1.7,22.5,0.9 c9.9-1,19.4-2.7,28.9-5.5C390.4,666.6,398.5,663.3,407.3,663.3z"></path> <path class="st1" d="M269.4,647.8c0,18.3,0.5,44.4,0.5,62.7c0.1,1.2-0.5,2.7,0.8,3.8c3.6-12.3,7.2-25.4,11.6-37.5L269.4,647.8z"></path> <path class="st5" d="M98.9,685.4c2.7-0.7,5.3-0.8,7.9,0.4c5.6,5.1,7,11.3,4.1,17.6c-1.6,3.6-4.3,6.1-8.3,6c-4.1,0-6.7-2.6-8.3-6.1 C91.2,696.9,93,690.2,98.9,685.4z"></path> <path class="st5" d="M232.4,685.5c3.3-1.8,6.5-1.6,9.7,0.2c5.2,6,6.2,12.5,2.7,18.3c-3.9,6.6-11.3,6.7-15.4,0.2 C225.9,698.2,227,691.2,232.4,685.5z"></path> <path class="st2" d="M321.9,659.6c0.1-1.3-0.3-2.5-0.9-3.7c-0.1-6.1-2.1-12.3,0.4-19.5c-8.3,6.4-15.7,12.1-23.1,17.7 c-3.5-5.2-4.8-11.3-7-17c-6.5-15.8-12.9-31.7-18.8-47.7c-5.9-15.6-12-31.1-18.3-46.6c-2.2-5.5-2-5.9,3.6-7.6 c8.9-2.6,17.6-5.6,26.7-7.3c0.5,0.6,1,1.2,1.5,1.8c5.6,10,10.9,20.1,15.6,30.5c5.4,14.7,10.8,29.5,16.3,44.1 c0.2,0.5,0.9,0.7,1.4,1.1c3,1.6,3.4,4.8,3.8,7.7c0.6,5,1.3,10.2,1.9,15.2c-0.1,0.1-0.2,0.2-0.2,0.3c0.1-0.1,0.1-0.2,0.2-0.4 c4.1-5.4,4.6-12.1,6.3-18.3c2.6-9.4,6.9-17.9,13.8-24.7c3.7-3.6,5.3-7.6,6.1-12.3c1.4-7.6,2.7-15.3,4-22.9c1-5.7,0.3-11.9,3.8-16.7 c4.3-6.1,5.8-13,7.2-20.3c-12.3,3.1-24.5,4-36.9,3.8c-8.5-0.1-17-0.1-25.5-0.1c-15.7-2.7-30.6-2-45.7,5 c-37.6,17.5-75.3,10.8-112.6-2.4c-1.4-2-1.1-4.4-1.7-6.6c28.2,4.3,54.3-2.1,79.7-14c8.1-3.8,16.6-7.1,25-10.1 c12.7-4.4,18.2-13.5,18.6-26.3c0.2-5.2,0.1-10.3,0.1-15.6c0.1-5.8,1.2-11.2,4.1-16.2c1-1.7,1.6-3.6,1.6-5.7 c3.6-0.3,7.1-0.6,10.8-0.9c9.5-0.5,19-1.1,28.5-1.6c6.4-0.3,12.8-0.5,19.2-0.7c2.5-0.1,5-0.2,7,1.6c3.2,2.9,7,3.3,11,3.6 c21,1.3,41.9,3.8,62.3,9.1c20.9,5.3,31,20.2,29.2,41.6c-0.8,9.1-3.2,17.9-5.7,26.7c-2.7,9.5-5.1,19.2-4.9,29.2 c0.3,12.7-3.2,24.2-7.7,35.8c-7.7,19.9-16.2,39.7-21.5,60.5c-2.5,6.2-4,12.8-7.5,18.6c-5.8,9.6-13.3,16.2-25.3,15.3 c-2.7-0.2-5.2,0.3-7.5,1.5c-5.2,2.7-10.9,4-16.6,4.6C334.4,671.2,324.9,669.1,321.9,659.6z"></path> <path class="st8" d="M606.5,317c0.2,2.9-0.1,5.8-1.2,8.5c-1.3,3.3-1.8,6.7-1.6,10.2c0.5,5-0.3,10-1.8,14.8 c-3.2,10-5.1,20.3-7.5,30.6c-57.7,0.6-115.5,1.3-173.2,1.8c-36.2,0.4-72.6,0.8-108.8,1.2c-0.7-0.5-1.6-0.6-2.3,0c-1.4,0-2.7,0-4.1,0 l-0.3-0.3l-0.3,0.3c-2.2,0.2-4.3,0.4-6.5,0.6c-0.5-2.9-2-5.5-3.8-7.6c-7.9-9-10.2-19.9-11.2-31.2c3.4-2.7,4.7-5.6,2.4-10.1 c-2.4-4.7-3.5-9.9-4.3-15.1c1.5-1.5,3.1-2.1,5.3-2.1c39.5,0.4,79-0.4,118.5-0.8c46.1-0.6,92.2,0.8,138.3-0.8 C565.1,316.3,585.9,317,606.5,317z"></path> <path class="st1" d="M279.1,295.9c21,0,42.1,0.5,63-0.2c34.9-1.1,69.7,0,104.6-0.8c40.1-1,80.1-0.2,120.1-1c12-0.3,24.1-0.3,36-0.5 c1.5,0,3.2,0.4,3.6-1.8c1.6,5,0.7,10.2,0.7,15.4c-24.1,0.2-48.1,0.5-72.2,0.6c-48.8,0.4-97.4,0.6-146.2,1 c-36,0.3-72.2,0.5-108.2,0.7C279.6,304.8,279.3,300.3,279.1,295.9z"></path> <path class="st7" d="M284.1,346c0.9,11.4,3.3,22.2,11.2,31.2c1.8,2.1,3.4,4.7,3.8,7.6c1.9,3,1.6,6.5,2,9.8 c0.1,5.7-0.7,11.2-3.8,16.1c-5.6,9.2-14.5,12.4-24.5,13.4c-2.7-3.5-6.6-5.3-9.9-8.1c-10.4-8.6-16.1-19.6-17.9-32.8 c-1.2-8.6-2.4-17.1-5-25.4c-1.5-4.5-0.6-4.9,3.3-5.6C257,350.2,270.9,350.4,284.1,346z"></path> <path class="st5" d="M280.8,309.1c36-0.3,72.2-0.5,108.2-0.7c48.8-0.4,97.4-0.6,146.2-1c24.1-0.2,48.1-0.5,72.2-0.6 c0,3.4,1.1,6.9-0.7,10.2c-20.8,0-41.4-0.6-62.1,0.1c-46.1,1.6-92.2,0.2-138.3,0.8c-39.5,0.5-79,1.2-118.5,0.8 c-2.2,0-3.8,0.6-5.3,2.1C281.5,316.9,280.6,313.1,280.8,309.1z"></path> <path class="st1" d="M283.4,424.5c-3.6,0.2-7.1,0.5-10.8,0.9c0.1-0.5,0.2-0.9,0.3-1.4c10.1-1,18.9-4.1,24.5-13.4 c3-5,3.8-10.4,3.8-16.1c0.3,0.3,0.5,0.6,0.9,0.9c-0.1,7.7,0,15.5-0.4,23.1c-0.1,3.4,0.9,4.7,4.3,4.3"></path> <path class="st9" d="M788.4,239.3c-1.7,3.6-5.5,5.5-8,8.1c-5.3,3.7-10.7,7.4-14.2,13c0,0-3.4,8.4-2.4,14.5 c-0.6,9.4,1.4,14.5,2.7,23.7c-17.4,5.9-27.5,18.8-34,35.1c0,0-11.2,34.4-15.3,56.4c-4.2,1.7-8.6,1.9-13,1.7 c-10-0.4-19.9-1.5-29.8-3.4c-2.7-0.5-3.2-1.5-2.1-3.9l7-42.1c2.6-18.4-2.9-33.6-2.9-33.6c-2.1-4.6-4.1-9.3-6.5-13.8 c-5.4-10.3-13.3-18.6-22.7-25.2c-14.1-10-25.7-21.8-30.6-38.9c-0.1-1.7-0.2-3.5-0.3-5.2c0,0,0-0.1,0.1-0.1 c-2.8-18.2,1.4-34.5,13.6-48.6c2.9-3.3,6.2-6.3,9.2-9.5c5.9-6.3,7.6-13.7,4.9-22c-1.5-4.5-3.1-8.9-4.7-13.4 c-5.4-15.4-2-28.7,12.1-36.8c23.4-13.4,48.9-18.1,75.3-10.2c17.7,5.2,26.7,19.3,32.2,35.9c4.8,14.3,3.3,28.9,2.3,43.5 c-0.5,7.4-0.9,14.9,0.4,22.3c1.5,9.1,5.7,16.6,12.8,22.5C774.5,209.3,795,225.2,788.4,239.3z"></path> <path class="st2" d="M477.3,661.3c-2.7-5.5-1.9-10.6,2.1-15.2c3.7-4.1,4.1-9.1,3.9-14.1c-0.3-6.5,1.1-12.3,6.4-16.7 c2.7-2.2,3.6-5.6,4.4-8.9c7.5-30.4,16.9-60.2,28.8-89.1c2.2-5.4,3.2-11.1,3.8-16.8c1.7-17.7,11.1-29.8,27-37.1 c11.1-5,22.9-8.1,34.3-12.2c7.1-1.2,14.1-3.6,21.5-3.5c4,0.1,5.1,1.4,3.9,5.3c-1.5,4.8-1,9.6,0,14.4c0.7,3.4,2.8,6.1,6.7,6.6 c2.7,0.3,4.9-0.5,2.7-3.8c-2.1-3.3-0.6-4.5,2.5-5.4c2.2-0.6,4.5-0.9,6.8-0.8c7.7,0.5,14.4-1.7,19.9-7.3c0.8-0.8,2-1.4,3-2 c18.1,0.6,36-2.1,54-3.3c1.4,0.8,2.7,1.3,2.8,3.6c1.4,23,1.8,45.8-4.6,68.3c-0.5,1.5-0.7,2.9-2,3.9c-4.8,0-9.4,0.1-14.2-0.1 c-31.4-1.6-62.7-6.8-94.2-4.3c-6.8,0.5-13-2.4-19.5-3.5c-8.7-1.5-17.2-3.6-26.1-3.2c-2.2,0.1-4.2,0.3-6.5,1.6 c3.7,2.8,8.1,2.8,12,3.9c8.1,2.1,16.5,3.8,24.2,7.3c-1.7,2.5-3.8,4.8-3.9,8.1c0,0.7-0.1,1.5-0.9,1.9c-11.8,6.8-15.8,18.7-19.8,30.5 c-2.4,7.1-2.6,14.6-2.7,22.1c-0.2,6-1.8,11.3-6,15.8c-3.8,4.1-6.8,8.7-6.1,14.6c0,0.5,0.1,1.1-0.2,1.3c-5,4.1-4,11.9-9.6,15.9 c-4.6,3.3-6.5,8.3-6.8,13.9c-0.1,2.3-0.5,4.6-0.5,6.9c0,7.5-2.6,13.6-9.1,17.8C500.1,682.5,483.9,675.4,477.3,661.3z"></path> <path class="st2" d="M663.9,636.4c-1.2,8,0.1,16.1-1.6,24c-13.1,0.6-24.7,6-36.5,11.1c-2.9,0.2-6.4,2.6-7.9-2.3 c-2.3-7.2-4.7-14.6-3.1-22.2c2.2-10.5-0.1-20-4.2-29.6c-2.7-5.9-5.2-12-5.1-18.7c1.1-7.3,5.4-13.4,7.9-20.2 c1.8-4.8,4.1-9.4,6.2-14.2c0.7-1.6,1.5-3.3,3.8-3.4c7-0.5,13.9-1.3,20.8-1.4c3,0,6.1,1.6,9.1,2.4c0.1,0.5-0.1,1.3,0.2,1.7 c5.3,10.8,7.2,21.8,3.6,33.6c-1.4,4.6-0.5,9,2.5,12.9c2.3,3,2.9,6.7,2.8,10.3c-0.1,3.7-0.4,7.3-0.5,11 C661.7,633.4,661.5,635.5,663.9,636.4z"></path> <path class="st2" d="M625.8,671.5c11.8-4.9,23.4-10.4,36.5-11.1c0.2,11.9-1.3,23.8-1.9,35.7c-1.7-0.1-3.2,0.8-4.8,1.5 c-7.7,3.4-12.4,10.2-18.2,15.6c-6.9,6.5-19.4,6.5-25.8-0.1c-0.5-0.5-0.5-1.6-0.6-2.6c-0.4-2.7,0.6-5.4,2.7-6.4 c5.9-2.7,6.4-8.6,8.5-13.4C625.2,684.7,626.2,678.2,625.8,671.5z"></path> <path class="st2" d="M610.9,710.6c0.2,0.8,0.2,2,0.6,2.6c6.4,6.6,18.8,6.6,25.8,0.1c5.9-5.5,10.5-12.3,18.2-15.6 c1.6-0.6,2.9-1.6,4.8-1.5c0.5,5.6-1.3,11.1-0.9,16.7c-8.1,2.8-15.9,7-24.2,9.3c-4.4,1.3-8.8,2.4-13.4,2.4 C612,724.5,608.7,720.2,610.9,710.6z"></path> <path class="st6" d="M708.8,451.5c-18,1.2-35.9,3.9-54,3.3c11.5-8.8,24.6-12.4,39-11.2c5.6,0.5,11.1,1.9,16.7,1.1 C710.1,447,712.3,449.9,708.8,451.5z"></path> <path class="st2" d="M673.2,672.3c2.7,2.9,3.3,6.7,4.1,10.3c0.8,3.7,2.2,6.9,5.4,9.1c3.1,2.2,2.9,4.5,0.4,7.1 c-3.4,3.5-7,6.6-11.6,8.4C671.8,695.6,671.9,683.9,673.2,672.3z"></path> <path class="st2" d="M593.6,556.3c-3.4-8.4-3.3-18-8.7-25.8c5.7-0.8,10.4,2.1,15.5,3.8c2.1,0.6,0.8,2.2,0.4,3.4 c-2.4,6.1-5.7,12-6.3,18.7c0,0.1-0.3,0.2-0.4,0.2C593.8,556.5,593.7,556.3,593.6,556.3z"></path> <path class="st10" d="M584.7,530.1c-0.2-0.1-0.3-0.2-0.2-0.4c0.2-0.1,0.4-0.1,0.5-0.2C585,529.8,584.8,530,584.7,530.1z"></path> <path class="st2" d="M298.2,654.2c7.4-5.7,16.8-15.3,25.1-21.7c-2.5,7.2-0.5,18.4-0.4,24.5c-6.6,2.2-14.3,6.6-21.2,8.2 C300.6,661.9,298.8,657.7,298.2,654.2z"></path> <path class="st0" d="M302.1,395.5c-0.3-0.3-0.5-0.6-0.9-0.9c-0.3-3.3,0-6.8-2-9.8c2.2-0.2,4.3-0.4,6.5-0.6l0.3,0.1l0.3-0.1 c1.4,0,2.7,0,4.1,0c0.7,0,1.5,0,2.3,0c36.2-0.4,72.6-0.8,108.8-1.2c57.7-0.6,115.5-1.3,173.2-1.8c-0.7,5.1-1.5,10.3-2.2,15.5 c-2.3-1.2-4.7-1.1-7.1-1.1C490.8,395.5,396.4,395.5,302.1,395.5z"></path> <path class="st11" d="M385.2,278.4c0.5-1,1.6-0.8,2.5-1c25.1,0,50.1,0,75.1,0c0.5,0.1,1.1,0.1,1.6,0.2c-1.6,1.5-3.5,0.8-5.2,0.8 C434.6,278.4,409.9,278.4,385.2,278.4z"></path> <path class="st3" d="M567.7,27.7c0.1,2,0.3,3.9,0.3,5.9c0,52.1,0,104.1,0,156.2c0,9.1-1.8,11.1-10.8,11.1c-87.5,0-174.9,0-262.4,0 c-8.1,0-10.4-2.2-10.4-10.2c0-52.7,0-105.3,0-158c0-1.6,0.2-3.3,0.3-5c1.1,0,2.1,0.1,3.2,0.1c91.8,0,183.4,0,275.2,0 C564.6,27.9,566.2,27.8,567.7,27.7z"></path> <path class="st0" d="M567.7,27.7c-1.6,0-3,0.1-4.6,0.1c-91.8,0-183.4,0-275.2,0c-1.1,0-2.1-0.1-3.2-0.1c0.7-5.3,3.1-7.6,8.2-7.9 c0.7,0,1.6,0,2.3,0c87.4,0,174.7,0,262,0C564.6,19.9,567,21.7,567.7,27.7z"></path> <path class="st12" d="M426.6,16.2c-2.2-0.2-3.7-1.3-3.8-3.3c-0.2-2.3,1.1-3.8,3.4-3.9c2.1-0.2,3.5,1.2,3.8,3.2 C430.1,14.5,428.5,15.6,426.6,16.2z"></path> <path class="st5" d="M385.2,278.4c24.7,0,49.4,0,74.1-0.1c1.7,0,3.7,0.7,5.2-0.8c3.8,1.6,7.8,0.7,11.7,0.8c6.6,0.2,13.1,0.2,19.7,0 c3.3-0.1,5.7,1.4,5.8,4.5c0.2,3.3-2.6,4.7-5.6,4.7c-7,0.1-14,0-21,0c-38.8,0-77.7,0-116.5,0c-0.9,0-1.8,0-2.7,0 c-3,0-5.3-1.6-5.4-4.4c-0.1-3.2,2.3-4.8,5.5-4.8C365.7,278.5,375.4,278.5,385.2,278.4z"></path> <path class="st2" d="M477.3,661.3c6.6,14.1,22.9,21,38,16.3c2.1,5.7,2,11.5,2.6,17.5c0.3,3-2.4,4.4-3,6.8c-7.4,1.8-14.6-0.3-22-0.9 c-7.6-0.6-15-2.9-22.8-3.2c-15.7-0.5-22.3-5.6-26.3-18.9c2.2-6.7,8.1-11.8,14.3-9.9C467.2,671.9,472.5,667.9,477.3,661.3z"></path> <path class="st2" d="M321.9,659.6c2.9,9.5,12.4,8.6,21.8,7.7c5.8-0.6,11.3-1.8,16.6-4.6c2.3-1.2,4.8-1.6,7.5-1.5 c12.1,0.9,16.6-2.8,22.3-12.3c3.5-5.8,8-12.4,10.5-18.6c11.3,7.4,13.8,19.7,6.7,33c-8.8,0.1-16.9,5.3-25.2,7.7 c-9.5,2.7-19,4.4-28.9,5.5c-7.7,0.8-17-0.5-24.5-1.9c-4.7-0.9-6.4-4.4-10.4-6.6c-1.4-0.7-1.7-1.6-0.9-2.9 C318.6,662.9,319.3,660.4,321.9,659.6z"></path> <path class="st2" d="M443.7,678.8c4,13.4,10.5,18.5,26.3,18.9c7.8,0.3,15.2,2.5,22.8,3.2c7.3,0.6,14.5,2.7,22,0.9 c4.2,4.8,2.8,10.2-3.3,11.1c-8,1.2-16.1,1-24.2,0.1c-2.9-0.3-5.1-2-5.1-5.4c-0.1-3.5-2.4-4.7-5.3-5.2c-4.4-0.8-8.8-0.4-13.2-0.4 c-7.1-0.1-13.2-2.6-17.5-8.3C443,689.3,441.7,684.4,443.7,678.8z"></path> <path class="st2" d="M319.1,605.6c4.9-1,9.8,3.6,13.9,4.6c-1.7,6.2-1.2,14.9-5.3,20.3l-3-2c-0.6-5-1.2-10.2-1.9-15.2 C322.4,610.4,322.1,607.4,319.1,605.6z"></path> <path class="st13" d="M324.7,628.5c-0.1,0.1-0.1,0.2-0.2,0.4C324.6,628.8,324.7,628.7,324.7,628.5 C324.7,628.6,324.7,628.5,324.7,628.5z"></path> <path class="st13" d="M312.6,384.1c-0.7,0-1.6,0-2.3,0C311,383.5,311.8,383.5,312.6,384.1z"></path> <polygon class="st13" points="306.2,384.1 305.9,384.3 305.6,384.1 305.9,383.8 "></polygon> <g> <path class="st14" d="M341.8,199.6"></path> <path class="st14" d="M513,199.6"></path> <path class="st14" d="M406.1,199.6"></path> <path class="st14" d="M422.7,199.6"></path> <path class="st14" d="M406.1,199.6"></path> <polyline class="st15" points="482.9,198.8 445.8,156.9 407.6,153.3 385.3,124.7 419.2,43 443.7,98.5 462,96.1 498.7,186.4 507.5,188.4 513,198.8 "></polyline> <polyline class="st15" points="366.3,118.9 366.3,161.1 321.4,198.8 366.3,118.9 "></polyline> <polyline class="st15" points="385.3,124.7 366.3,118.9 366.3,161.1 398.8,174.7 407.6,153.3 "></polyline> <line class="st15" x1="407.6" y1="198.8" x2="398.8" y2="174.7"></line> <polyline class="st15" points="419.2,43 445.8,156.9 462,96.1 "></polyline> <polyline class="st15" points="449.1,144.6 498.7,186.4 457,114.8 "></polyline> <polyline class="st15" points="483.6,198.8 445.8,156.9 429,198.8 "></polyline> <path class="st16" d="M407.6,198.8"></path> <path class="st16" d="M321.4,198.8"></path> <line class="st15" x1="321.4" y1="198.8" x2="513" y2="198.8"></line> </g> </svg> 